<?xml version="1.0" encoding="UTF-8" standalone="no"?>
<!-- Created with Inkscape (http://www.inkscape.org/) -->

<svg
   xmlns:osb="http://www.openswatchbook.org/uri/2009/osb"
   xmlns:dc="http://purl.org/dc/elements/1.1/"
   xmlns:cc="http://creativecommons.org/ns#"
   xmlns:rdf="http://www.w3.org/1999/02/22-rdf-syntax-ns#"
   xmlns:svg="http://www.w3.org/2000/svg"
   xmlns="http://www.w3.org/2000/svg"
   xmlns:sodipodi="http://sodipodi.sourceforge.net/DTD/sodipodi-0.dtd"
   xmlns:inkscape="http://www.inkscape.org/namespaces/inkscape"
   width="744.09448819"
   height="1052.3622047"
   id="svg8805"
   version="1.1"
   inkscape:version="0.91 r13725"
   sodipodi:docname="XOR5-1.0-8HP-panel.svg">
  <defs
     id="defs8807">
    <linearGradient
       id="linearGradient5359"
       osb:paint="solid">
      <stop
         style="stop-color:#ff0000;stop-opacity:1;"
         offset="0"
         id="stop5361" />
    </linearGradient>
  </defs>
  <sodipodi:namedview
     id="base"
     pagecolor="#ffffff"
     bordercolor="#666666"
     borderopacity="1.0"
     inkscape:pageopacity="0.0"
     inkscape:pageshadow="2"
     inkscape:zoom="2.2946506"
     inkscape:cx="467.99999"
     inkscape:cy="317.25"
     inkscape:document-units="px"
     inkscape:current-layer="layer4"
     showgrid="true"
     inkscape:snap-center="false"
     inkscape:snap-object-midpoints="true"
     inkscape:snap-to-guides="false"
     inkscape:snap-grids="true"
     inkscape:snap-midpoints="false"
     inkscape:window-width="2063"
     inkscape:window-height="1209"
     inkscape:window-x="166"
     inkscape:window-y="66"
     inkscape:window-maximized="0"
     inkscape:snap-nodes="true"
     inkscape:snap-bbox="false"
     inkscape:snap-bbox-midpoints="true"
     inkscape:snap-global="true"
     gridtolerance="4">
    <inkscape:grid
       type="xygrid"
       id="grid8813"
       empspacing="4"
       visible="true"
       enabled="true"
       snapvisiblegridlinesonly="false"
       units="in"
       spacingx="0.025in"
       spacingy="0.025in"
       color="#f700f9"
       opacity="0.1254902"
       dotted="true" />
  </sodipodi:namedview>
  <metadata
     id="metadata8810">
    <rdf:RDF>
      <cc:Work
         rdf:about="">
        <dc:format>image/svg+xml</dc:format>
        <dc:type
           rdf:resource="http://purl.org/dc/dcmitype/StillImage" />
        <dc:title />
      </cc:Work>
    </rdf:RDF>
  </metadata>
  <g
     inkscape:label="8HP panel"
     inkscape:groupmode="layer"
     id="layer1"
     style="display:inline">
    <g
       id="g3071"
       style="stroke-width:0.03543307;stroke-miterlimit:4;stroke-dasharray:none">
      <rect
         style="fill:none;stroke:#0000ff;stroke-width:0.03543307;stroke-miterlimit:4;stroke-dasharray:none;stroke-opacity:1"
         id="rect3093"
         width="143.74339"
         height="454.5"
         x="396.1283"
         y="507.86218" />
      <circle
         style="fill:none;stroke:#0000ff;stroke-width:0.04251968;stroke-miterlimit:4;stroke-dasharray:none;stroke-opacity:1"
         id="path3095"
         transform="matrix(0.83333333,0,0,0.83333333,306,41.518699)"
         cx="249.75"
         cy="573.11218"
         r="6.75" />
      <circle
         transform="matrix(0.83333333,0,0,0.83333333,214.83507,41.581199)"
         id="path3097"
         style="fill:none;stroke:#0000ff;stroke-width:0.04251968;stroke-miterlimit:4;stroke-dasharray:none;stroke-opacity:1"
         cx="249.75"
         cy="573.11218"
         r="6.75" />
      <circle
         style="fill:none;stroke:#0000ff;stroke-width:0.04251968;stroke-miterlimit:4;stroke-dasharray:none;stroke-opacity:1"
         id="path3099"
         transform="matrix(0.83333333,0,0,0.83333333,214.83507,473.5812)"
         cx="249.75"
         cy="573.11218"
         r="6.75" />
      <circle
         transform="matrix(0.83333333,0,0,0.83333333,306,473.5187)"
         id="path3101"
         style="fill:none;stroke:#0000ff;stroke-width:0.04251968;stroke-miterlimit:4;stroke-dasharray:none;stroke-opacity:1"
         cx="249.75"
         cy="573.11218"
         r="6.75" />
    </g>
  </g>
  <g
     inkscape:groupmode="layer"
     id="layer3"
     inkscape:label="FP LASER HOLES"
     style="display:inline">
    <text
       xml:space="preserve"
       style="font-style:normal;font-variant:normal;font-weight:normal;font-stretch:normal;font-size:20px;line-height:125%;font-family:'Averia Sans';-inkscape-font-specification:'Averia Sans';letter-spacing:0px;word-spacing:0px;fill:#000000;fill-opacity:1;stroke:none"
       x="352.21191"
       y="792.32202"
       id="text9904"
       sodipodi:linespacing="125%"><tspan
         sodipodi:role="line"
         id="tspan9906"
         x="352.21191"
         y="792.32202" /></text>
    <ellipse
       style="display:inline;fill:none;stroke:#0000ff;stroke-width:0.03543307;stroke-miterlimit:4;stroke-dasharray:none;stroke-opacity:1"
       id="path3149"
       cx="423"
       cy="764.36218"
       rx="14.114821"
       ry="14.114065" />
    <ellipse
       id="path3919"
       style="display:inline;fill:none;stroke:#0000ff;stroke-width:0.03543307;stroke-miterlimit:4;stroke-dasharray:none;stroke-opacity:1"
       cx="513"
       cy="890.36218"
       rx="14.114821"
       ry="14.114065" />
    <ellipse
       style="display:inline;fill:none;stroke:#0000ff;stroke-width:0.03543307;stroke-miterlimit:4;stroke-dasharray:none;stroke-opacity:1"
       id="path3921"
       cx="423"
       cy="638.36218"
       rx="14.114821"
       ry="14.114065" />
    <ellipse
       id="path3923"
       style="display:inline;fill:none;stroke:#0000ff;stroke-width:0.03543307;stroke-miterlimit:4;stroke-dasharray:none;stroke-opacity:1"
       cx="432"
       cy="584.36218"
       rx="14.114821"
       ry="14.114065" />
    <ellipse
       ry="14.114065"
       rx="14.114821"
       cy="890.36218"
       cx="468"
       id="ellipse4420"
       style="display:inline;fill:none;stroke:#0000ff;stroke-width:0.03543307;stroke-miterlimit:4;stroke-dasharray:none;stroke-opacity:1" />
    <ellipse
       ry="14.114065"
       rx="14.114821"
       cy="836.36218"
       cx="432"
       id="ellipse4422"
       style="display:inline;fill:none;stroke:#0000ff;stroke-width:0.03543307;stroke-miterlimit:4;stroke-dasharray:none;stroke-opacity:1" />
    <ellipse
       ry="14.114065"
       rx="14.114821"
       cy="710.36218"
       cx="432"
       id="ellipse4424"
       style="display:inline;fill:none;stroke:#0000ff;stroke-width:0.03543307;stroke-miterlimit:4;stroke-dasharray:none;stroke-opacity:1" />
    <ellipse
       ry="14.114065"
       rx="14.114821"
       cy="584.36218"
       cx="504"
       id="ellipse4426"
       style="display:inline;fill:none;stroke:#0000ff;stroke-width:0.03543307;stroke-miterlimit:4;stroke-dasharray:none;stroke-opacity:1" />
    <ellipse
       style="display:inline;fill:none;stroke:#0000ff;stroke-width:0.03543307;stroke-miterlimit:4;stroke-dasharray:none;stroke-opacity:1"
       id="ellipse6470"
       cx="504"
       cy="674.36218"
       rx="14.114821"
       ry="14.114065" />
  </g>
  <g
     inkscape:groupmode="layer"
     id="layer4"
     inkscape:label="Engravings"
     style="display:inline">
    <text
       xml:space="preserve"
       style="font-style:normal;font-variant:normal;font-weight:normal;font-stretch:normal;font-size:20px;line-height:125%;font-family:'Averia Sans';-inkscape-font-specification:'Averia Sans';letter-spacing:0px;word-spacing:0px;fill:#000000;fill-opacity:1;stroke:#ff0000;stroke-width:0.03543307;stroke-miterlimit:4;stroke-dasharray:none;stroke-opacity:1"
       x="345.08755"
       y="796.32947"
       id="text9913"
       sodipodi:linespacing="125%"><tspan
         sodipodi:role="line"
         id="tspan9915"
         x="345.08755"
         y="796.32947" /></text>
    <text
       xml:space="preserve"
       style="font-style:normal;font-variant:normal;font-weight:normal;font-stretch:normal;font-size:12px;line-height:125%;font-family:'C64 User';-inkscape-font-specification:'C64 User';letter-spacing:0px;word-spacing:0px;fill:#000000;fill-opacity:1;stroke:none"
       x="499.66638"
       y="626.3988"
       id="text3966"
       sodipodi:linespacing="125%"><tspan
         sodipodi:role="line"
         id="tspan3968"
         x="499.66638"
         y="626.3988" /></text>
    <path
       style="fill:none;stroke:#ff0000;stroke-width:0.03543307;stroke-miterlimit:4;stroke-dasharray:none;stroke-opacity:1"
       d="m 400.5,935.36218 135,0"
       id="path11004"
       inkscape:connector-curvature="0" />
    <path
       style="fill:none;stroke:#ff0000;stroke-width:0.03543307;stroke-miterlimit:4;stroke-dasharray:none;stroke-opacity:1"
       d="m 400.5,534.86218 135,0"
       id="path11006"
       inkscape:connector-curvature="0" />
    <text
       xml:space="preserve"
       style="font-style:normal;font-weight:normal;font-size:15px;line-height:125%;font-family:sans-serif;letter-spacing:0px;word-spacing:0px;fill:#000000;fill-opacity:1;stroke:none;stroke-width:1px;stroke-linecap:butt;stroke-linejoin:miter;stroke-opacity:1"
       x="238.5"
       y="759.86218"
       id="text4491"
       sodipodi:linespacing="125%"><tspan
         sodipodi:role="line"
         id="tspan4493"
         x="238.5"
         y="759.86218" /></text>
    <text
       xml:space="preserve"
       style="font-style:normal;font-weight:normal;font-size:15px;line-height:125%;font-family:sans-serif;letter-spacing:0px;word-spacing:0px;fill:#000000;fill-opacity:1;stroke:none;stroke-width:1px;stroke-linecap:butt;stroke-linejoin:miter;stroke-opacity:1"
       x="243"
       y="777.86218"
       id="text4568"
       sodipodi:linespacing="125%"><tspan
         sodipodi:role="line"
         id="tspan4570"
         x="243"
         y="777.86218" /></text>
    <g
       id="g5549"
       transform="translate(252.05645,270.00409)"
       style="display:inline;stroke:#ff0000;stroke-width:0.03543307;stroke-miterlimit:4;stroke-dasharray:none;stroke-opacity:1">
      <path
         transform="matrix(0,1,-1,0,0,0)"
         sodipodi:open="true"
         d="m 669.86628,-215.92407 a 4.4958982,8.4536753 0 0 1 4.4959,-8.45368 4.4958982,8.4536753 0 0 1 4.4959,8.45368"
         sodipodi:end="0"
         sodipodi:start="3.1415927"
         sodipodi:ry="8.4536753"
         sodipodi:rx="4.4958982"
         sodipodi:cy="-215.92407"
         sodipodi:cx="674.36218"
         sodipodi:type="arc"
         id="path5541"
         style="fill:none;fill-opacity:1;stroke:#ff0000;stroke-width:0.03543307;stroke-miterlimit:4;stroke-dasharray:none;stroke-opacity:1" />
      <path
         style="fill:none;fill-opacity:1;stroke:#ff0000;stroke-width:0.03543307;stroke-miterlimit:4;stroke-dasharray:none;stroke-opacity:1"
         id="path5543"
         sodipodi:type="arc"
         sodipodi:cx="683.354"
         sodipodi:cy="-215.92407"
         sodipodi:rx="4.4958982"
         sodipodi:ry="8.4536753"
         sodipodi:start="3.1415927"
         sodipodi:end="0"
         d="m 678.85811,-215.92407 a 4.4958982,8.4536753 0 0 1 4.49589,-8.45368 4.4958982,8.4536753 0 0 1 4.4959,8.45368"
         sodipodi:open="true"
         transform="matrix(0,1,-1,0,0,0)" />
      <path
         inkscape:connector-curvature="0"
         id="path5545"
         d="m 215.94355,669.854 0,18.00818"
         style="fill:none;fill-rule:evenodd;stroke:#ff0000;stroke-width:0.03543307;stroke-linecap:butt;stroke-linejoin:miter;stroke-miterlimit:4;stroke-dasharray:none;stroke-opacity:1" />
      <path
         inkscape:connector-curvature="0"
         id="path5547"
         d="m 207.10181,687.86218 0,-18.00818 8.84174,6.75306"
         style="fill:none;fill-rule:evenodd;stroke:#ff0000;stroke-width:0.03543307;stroke-linecap:butt;stroke-linejoin:miter;stroke-miterlimit:4;stroke-dasharray:none;stroke-opacity:1" />
    </g>
    <path
       style="fill:none;fill-rule:evenodd;stroke:#ff0000;stroke-width:0.03543307;stroke-linecap:butt;stroke-linejoin:miter;stroke-miterlimit:4;stroke-dasharray:none;stroke-opacity:1"
       d="m 445.5,597.86218 9,9 0,31.5 -13.5,0"
       id="path6507"
       inkscape:connector-curvature="0" />
    <text
       xml:space="preserve"
       style="font-style:normal;font-weight:normal;font-size:15px;line-height:125%;font-family:sans-serif;letter-spacing:0px;word-spacing:0px;fill:#000000;fill-opacity:1;stroke:none;stroke-width:1px;stroke-linecap:butt;stroke-linejoin:miter;stroke-opacity:1"
       x="306"
       y="764.36218"
       id="text6537"
       sodipodi:linespacing="125%"><tspan
         sodipodi:role="line"
         id="tspan6539"
         x="306"
         y="764.36218" /></text>
    <path
       inkscape:connector-curvature="0"
       id="path6593"
       d="m 445.41142,723.83624 9,9 0,31.5 -13.5,0"
       style="fill:none;fill-rule:evenodd;stroke:#ff0000;stroke-width:0.03543307;stroke-linecap:butt;stroke-linejoin:miter;stroke-miterlimit:4;stroke-dasharray:none;stroke-opacity:1" />
    <g
       id="g6612"
       transform="translate(-207,-220.5)"
       style="stroke-width:0.03543307;stroke-miterlimit:4;stroke-dasharray:none">
      <ellipse
         ry="9.6140652"
         rx="9.6148214"
         cy="885.86218"
         cx="648"
         id="ellipse6597"
         style="display:inline;fill:none;stroke:#ff0000;stroke-width:0.03543307;stroke-miterlimit:4;stroke-dasharray:none;stroke-opacity:1" />
      <path
         inkscape:connector-curvature="0"
         id="path6599"
         d="m 648,878.19903 0,15.32631"
         style="fill:none;fill-rule:evenodd;stroke:#ff0000;stroke-width:0.03543307;stroke-linecap:butt;stroke-linejoin:miter;stroke-miterlimit:4;stroke-dasharray:none;stroke-opacity:1" />
      <path
         inkscape:connector-curvature="0"
         id="path6601"
         d="m 640.33666,885.86218 15.32668,0"
         style="fill:none;fill-rule:evenodd;stroke:#ff0000;stroke-width:0.03543307;stroke-linecap:butt;stroke-linejoin:miter;stroke-miterlimit:4;stroke-dasharray:none;stroke-opacity:1" />
    </g>
    <g
       transform="translate(-207,-94.500002)"
       id="g6617"
       style="stroke-width:0.03543307;stroke-miterlimit:4;stroke-dasharray:none">
      <ellipse
         style="display:inline;fill:none;stroke:#ff0000;stroke-width:0.03543307;stroke-miterlimit:4;stroke-dasharray:none;stroke-opacity:1"
         id="ellipse6619"
         cx="648"
         cy="885.86218"
         rx="9.6148214"
         ry="9.6140652" />
      <path
         style="fill:none;fill-rule:evenodd;stroke:#ff0000;stroke-width:0.03543307;stroke-linecap:butt;stroke-linejoin:miter;stroke-miterlimit:4;stroke-dasharray:none;stroke-opacity:1"
         d="m 648,878.19903 0,15.32631"
         id="path6621"
         inkscape:connector-curvature="0" />
      <path
         style="fill:none;fill-rule:evenodd;stroke:#ff0000;stroke-width:0.03543307;stroke-linecap:butt;stroke-linejoin:miter;stroke-miterlimit:4;stroke-dasharray:none;stroke-opacity:1"
         d="m 640.33666,885.86218 15.32668,0"
         id="path6623"
         inkscape:connector-curvature="0" />
    </g>
    <g
       transform="translate(-153,-256.5)"
       id="g6625"
       style="stroke-width:0.03543307;stroke-miterlimit:4;stroke-dasharray:none">
      <ellipse
         style="display:inline;fill:none;stroke:#ff0000;stroke-width:0.03543307;stroke-miterlimit:4;stroke-dasharray:none;stroke-opacity:1"
         id="ellipse6627"
         cx="648"
         cy="885.86218"
         rx="9.6148214"
         ry="9.6140652" />
      <path
         style="fill:none;fill-rule:evenodd;stroke:#ff0000;stroke-width:0.03543307;stroke-linecap:butt;stroke-linejoin:miter;stroke-miterlimit:4;stroke-dasharray:none;stroke-opacity:1"
         d="m 648,878.19903 0,15.32631"
         id="path6629"
         inkscape:connector-curvature="0" />
      <path
         style="fill:none;fill-rule:evenodd;stroke:#ff0000;stroke-width:0.03543307;stroke-linecap:butt;stroke-linejoin:miter;stroke-miterlimit:4;stroke-dasharray:none;stroke-opacity:1"
         d="m 640.33666,885.86218 15.32668,0"
         id="path6631"
         inkscape:connector-curvature="0" />
    </g>
    <path
       style="fill:none;fill-rule:evenodd;stroke:#ff0000;stroke-width:0.03543307;stroke-linecap:butt;stroke-linejoin:miter;stroke-miterlimit:4;stroke-dasharray:none;stroke-opacity:1"
       d="m 468,566.36218 0,54 4.5,2.25 0,4.5 -9,4.5 0,4.5 4.5,2.25 0,4.5 -4.5,2.25 0,51.75 9,4.5 0,4.5 -4.5,2.25 -4.5,2.25 0,4.5 9,4.5 0,4.5 -4.5,2.25 0,83.25 0,0 0,2.25"
       id="path6633"
       inkscape:connector-curvature="0" />
    <g
       id="g6642"
       transform="translate(24.75,-119.25)"
       style="stroke-width:0.03543307;stroke-miterlimit:4;stroke-dasharray:none">
      <ellipse
         style="display:inline;fill:none;stroke:#ff0000;stroke-width:0.03543307;stroke-miterlimit:4;stroke-dasharray:none;stroke-opacity:1"
         id="ellipse6571"
         cx="490.5"
         cy="849.86218"
         rx="16.619425"
         ry="16.618668" />
      <path
         inkscape:connector-curvature="0"
         id="path6635"
         d="m 477,845.36218 9,0 0,-9 9,0 0,9 9,0 0,9 -9,0 0,9 -9,0 0,-9 -9,0 z"
         style="fill:none;fill-rule:evenodd;stroke:#ff0000;stroke-width:0.03543307;stroke-linecap:butt;stroke-linejoin:miter;stroke-miterlimit:4;stroke-dasharray:none;stroke-opacity:1" />
    </g>
    <g
       transform="translate(0,-83.25)"
       id="g6646"
       style="stroke-width:0.03543307;stroke-miterlimit:4;stroke-dasharray:none">
      <ellipse
         ry="16.618668"
         rx="16.619425"
         cy="849.86218"
         cx="490.5"
         id="ellipse6648"
         style="display:inline;fill:none;stroke:#ff0000;stroke-width:0.03543307;stroke-miterlimit:4;stroke-dasharray:none;stroke-opacity:1" />
      <path
         style="fill:none;fill-rule:evenodd;stroke:#ff0000;stroke-width:0.03543307;stroke-linecap:butt;stroke-linejoin:miter;stroke-miterlimit:4;stroke-dasharray:none;stroke-opacity:1"
         d="m 477,845.36218 9,0 0,-9 9,0 0,9 9,0 0,9 -9,0 0,9 -9,0 0,-9 -9,0 z"
         id="path6650"
         inkscape:connector-curvature="0" />
    </g>
    <g
       style="font-style:normal;font-weight:normal;font-size:15px;line-height:125%;font-family:sans-serif;letter-spacing:0px;word-spacing:0px;fill:none;fill-opacity:1;stroke:#ff0000;stroke-width:0.03543307;stroke-linecap:butt;stroke-linejoin:miter;stroke-miterlimit:4;stroke-dasharray:none;stroke-opacity:1"
       id="text6662">
      <path
         d="m 459.9512,857.74384 1.58936,0 2.71728,4.06494 2.73194,-4.06494 1.58935,0 -3.51562,5.25146 3.75,5.68359 -1.58936,0 -3.07617,-4.65087 -3.09814,4.65087 -1.59668,0 3.9038,-5.8374 -3.40576,-5.09765 z"
         style=""
         id="path9819" />
      <path
         d="m 475.37601,862.7829 q 1.06201,0.22705 1.65527,0.94482 0.60059,0.71778 0.60059,1.77246 0,1.61866 -1.11328,2.50489 -1.11329,0.88623 -3.16407,0.88623 -0.68847,0 -1.4209,-0.13916 -0.72509,-0.13184 -1.50146,-0.40284 l 0,-1.42822 q 0.61523,0.35889 1.34766,0.54199 0.73242,0.18311 1.53076,0.18311 1.3916,0 2.1167,-0.54932 0.73242,-0.54931 0.73242,-1.59668 0,-0.96679 -0.68115,-1.50879 -0.67383,-0.54931 -1.88233,-0.54931 l -1.27441,0 0,-1.21582 1.33301,0 q 1.0913,0 1.66992,-0.43213 0.57861,-0.43945 0.57861,-1.25977 0,-0.84228 -0.60059,-1.28906 -0.59326,-0.4541 -1.70654,-0.4541 -0.60791,0 -1.30371,0.13183 -0.6958,0.13184 -1.53076,0.41016 l 0,-1.31836 q 0.84228,-0.23437 1.57471,-0.35156 0.73974,-0.11719 1.3916,-0.11719 1.68457,0 2.66601,0.76904 0.98145,0.76172 0.98145,2.06543 0,0.90821 -0.52002,1.53809 -0.52002,0.62256 -1.47949,0.86426 z"
         style=""
         id="path9821" />
    </g>
    <g
       style="font-style:normal;font-weight:normal;font-size:15px;line-height:125%;font-family:sans-serif;letter-spacing:0px;word-spacing:0px;fill:none;fill-opacity:1;stroke:#ff0000;stroke-width:0.03543307;stroke-linecap:butt;stroke-linejoin:miter;stroke-miterlimit:4;stroke-dasharray:none;stroke-opacity:1"
       id="text6670">
      <path
         d="m 504.79486,858.28577 1.58936,0 2.71728,4.06494 2.73194,-4.06494 1.58935,0 -3.51562,5.25146 3.75,5.6836 -1.58936,0 -3.07617,-4.65088 -3.09815,4.65088 -1.59668,0 3.90381,-5.83741 -3.40576,-5.09765 z"
         style=""
         id="path9824" />
      <path
         d="m 515.75189,858.28577 5.80811,0 0,1.24511 -4.45313,0 0,2.68067 q 0.32227,-0.10987 0.64453,-0.16113 0.32227,-0.0586 0.64454,-0.0586 1.83105,0 2.90039,1.00342 1.06933,1.00342 1.06933,2.71728 0,1.76514 -1.09863,2.74659 -1.09863,0.97412 -3.09815,0.97412 -0.68847,0 -1.40625,-0.11719 -0.71044,-0.11719 -1.47216,-0.35156 l 0,-1.48682 q 0.65918,0.35889 1.3623,0.53467 0.70313,0.17578 1.48682,0.17578 1.26709,0 2.00683,-0.6665 0.73975,-0.66651 0.73975,-1.80909 0,-1.14257 -0.73975,-1.80908 -0.73974,-0.6665 -2.00683,-0.6665 -0.59326,0 -1.18653,0.13183 -0.58593,0.13184 -1.20117,0.41016 l 0,-5.49316 z"
         style=""
         id="path9826" />
    </g>
    <g
       id="g6674"
       transform="matrix(1.6726346,0,0,1.6726346,-329.92727,-594.1467)"
       style="stroke:#ff0000;stroke-width:0.02118399;stroke-miterlimit:4;stroke-dasharray:none;stroke-opacity:1">
      <ellipse
         style="display:inline;fill:none;stroke:#ff0000;stroke-width:0.02118399;stroke-miterlimit:4;stroke-dasharray:none;stroke-opacity:1"
         id="ellipse6676"
         cx="490.5"
         cy="849.86218"
         rx="16.619425"
         ry="16.618668" />
      <path
         inkscape:connector-curvature="0"
         id="path6678"
         d="m 477,845.36218 9,0 0,-9 9,0 0,9 9,0 0,9 -9,0 0,9 -9,0 0,-9 -9,0 z"
         style="fill:none;fill-rule:evenodd;stroke:#ff0000;stroke-width:0.02118399;stroke-linecap:butt;stroke-linejoin:miter;stroke-miterlimit:4;stroke-dasharray:none;stroke-opacity:1" />
    </g>
    <g
       style="font-style:normal;font-variant:normal;font-weight:normal;font-stretch:normal;font-size:20px;line-height:125%;font-family:sans-serif;-inkscape-font-specification:sans-serif;letter-spacing:0px;word-spacing:0px;fill:none;fill-opacity:1;stroke:#ff0000;stroke-width:0.03543307;stroke-linecap:butt;stroke-linejoin:miter;stroke-miterlimit:4;stroke-dasharray:none;stroke-opacity:1"
       id="text6680">
      <path
         d="m 444.3342,514.55933 1.85425,0 3.17016,4.74243 3.18726,-4.74243 1.85425,0 -4.10157,6.12671 4.375,6.63085 -1.85424,0 -3.58887,-5.42602 -3.6145,5.42602 -1.8628,0 4.55445,-6.8103 -3.97339,-5.94726 z"
         style="font-size:17.5px;stroke-width:0.03543307;stroke-miterlimit:4;stroke-dasharray:none"
         id="path9810" />
      <path
         d="m 461.01389,515.72998 q -1.87989,0 -2.99073,1.40137 -1.10229,1.40136 -1.10229,3.81958 0,2.40967 1.10229,3.81103 1.11084,1.40137 2.99073,1.40137 1.87988,0 2.97363,-1.40137 1.10229,-1.40136 1.10229,-3.81103 0,-2.41822 -1.10229,-3.81958 -1.09375,-1.40137 -2.97363,-1.40137 z m 0,-1.40137 q 2.6831,0 4.28955,1.80298 1.60644,1.79444 1.60644,4.81934 0,3.01636 -1.60644,4.81933 -1.60645,1.79444 -4.28955,1.79444 -2.69165,0 -4.30665,-1.79444 -1.60644,-1.79443 -1.60644,-4.81933 0,-3.0249 1.60644,-4.81934 1.615,-1.80298 4.30665,-1.80298 z"
         style="font-size:17.5px;stroke-width:0.03543307;stroke-miterlimit:4;stroke-dasharray:none"
         id="path9812" />
      <path
         d="m 475.67697,521.33545 q 0.55542,0.18799 1.07666,0.80322 0.52979,0.61524 1.05957,1.6919 l 1.75171,3.48632 -1.85425,0 -1.63208,-3.2727 q -0.63232,-1.28174 -1.23047,-1.70044 -0.5896,-0.4187 -1.61499,-0.4187 l -1.87988,0 0,5.39184 -1.72607,0 0,-12.75756 3.89648,0 q 2.1875,0 3.26416,0.9143 1.07666,0.91431 1.07666,2.76001 0,1.20484 -0.56396,1.99951 -0.55542,0.79468 -1.62354,1.1023 z m -4.32373,-5.35767 0,4.52881 2.17041,0 q 1.24756,0 1.87988,-0.57251 0.64087,-0.58105 0.64087,-1.70044 0,-1.11938 -0.64087,-1.68335 -0.63232,-0.57251 -1.87988,-0.57251 l -2.17041,0 z"
         style="font-size:17.5px;stroke-width:0.03543307;stroke-miterlimit:4;stroke-dasharray:none"
         id="path9814" />
      <path
         d="m 481.96603,514.55933 6.77613,0 0,1.45263 -5.19532,0 0,3.12744 q 0.37598,-0.12817 0.75196,-0.18798 0.37597,-0.0684 0.75195,-0.0684 2.13623,0 3.38379,1.17065 1.24756,1.17066 1.24756,3.17017 0,2.05932 -1.28174,3.20434 -1.28174,1.13648 -3.6145,1.13648 -0.80322,0 -1.64063,-0.13672 -0.82885,-0.13672 -1.71753,-0.41016 l 0,-1.73462 q 0.76905,0.4187 1.58936,0.62378 0.82031,0.20508 1.73462,0.20508 1.47827,0 2.34131,-0.77759 0.86303,-0.77759 0.86303,-2.11059 0,-1.33301 -0.86303,-2.1106 -0.86304,-0.77759 -2.34131,-0.77759 -0.69214,0 -1.38428,0.15381 -0.68359,0.15381 -1.40137,0.47852 l 0,-6.40869 z"
         style="font-size:17.5px;stroke-width:0.03543307;stroke-miterlimit:4;stroke-dasharray:none"
         id="path9816" />
    </g>
    <path
       style="fill:none;fill-rule:evenodd;stroke:#ff0000;stroke-width:0.03543307;stroke-linecap:butt;stroke-linejoin:miter;stroke-miterlimit:4;stroke-dasharray:none;stroke-opacity:1"
       d="m 409.5,665.36218 18,0"
       id="path6684"
       inkscape:connector-curvature="0" />
    <path
       inkscape:connector-curvature="0"
       id="path6686"
       d="m 409.5,791.36218 18,0"
       style="fill:none;fill-rule:evenodd;stroke:#ff0000;stroke-width:0.03543307;stroke-linecap:butt;stroke-linejoin:miter;stroke-miterlimit:4;stroke-dasharray:none;stroke-opacity:1" />
    <path
       style="fill:none;fill-rule:evenodd;stroke:#ff0000;stroke-width:0.03543307;stroke-linecap:butt;stroke-linejoin:miter;stroke-miterlimit:4;stroke-dasharray:none;stroke-opacity:1"
       d="m 508.5,629.36218 18,0"
       id="path6688"
       inkscape:connector-curvature="0" />
  </g>
  <g
     inkscape:groupmode="layer"
     id="layer5"
     inkscape:label="Knobs outlines"
     style="display:none"
     sodipodi:insensitive="true">
    <circle
       id="path3884"
       style="display:inline;fill:none;stroke:#000000;stroke-width:0.35433072;stroke-miterlimit:4;stroke-dasharray:none;stroke-opacity:1"
       cx="504"
       cy="584.36218"
       r="26.427053" />
    <circle
       id="path3888"
       style="display:inline;fill:none;stroke:#000000;stroke-width:0.35433072;stroke-miterlimit:4;stroke-dasharray:none;stroke-opacity:1"
       cx="504"
       cy="674.36218"
       r="26.427053" />
    <circle
       r="26.427053"
       cy="584.36218"
       cx="432"
       style="display:inline;fill:none;stroke:#000000;stroke-width:0.35433072;stroke-miterlimit:4;stroke-dasharray:none;stroke-opacity:1"
       id="circle6472" />
    <circle
       id="circle6474"
       style="display:inline;fill:none;stroke:#000000;stroke-width:0.35433072;stroke-miterlimit:4;stroke-dasharray:none;stroke-opacity:1"
       cx="432"
       cy="710.36218"
       r="26.427053" />
    <circle
       r="26.427053"
       cy="836.36218"
       cx="432"
       style="display:inline;fill:none;stroke:#000000;stroke-width:0.35433072;stroke-miterlimit:4;stroke-dasharray:none;stroke-opacity:1"
       id="circle6476" />
  </g>
</svg>
