<?xml version="1.0" encoding="UTF-8" standalone="no"?>
<!-- Created with Inkscape (http://www.inkscape.org/) -->

<svg
   xmlns:osb="http://www.openswatchbook.org/uri/2009/osb"
   xmlns:dc="http://purl.org/dc/elements/1.1/"
   xmlns:cc="http://creativecommons.org/ns#"
   xmlns:rdf="http://www.w3.org/1999/02/22-rdf-syntax-ns#"
   xmlns:svg="http://www.w3.org/2000/svg"
   xmlns="http://www.w3.org/2000/svg"
   xmlns:sodipodi="http://sodipodi.sourceforge.net/DTD/sodipodi-0.dtd"
   xmlns:inkscape="http://www.inkscape.org/namespaces/inkscape"
   width="744.09448819"
   height="1052.3622047"
   id="svg8805"
   version="1.1"
   inkscape:version="0.91 r13725"
   sodipodi:docname="XOR5-1.0-8HP-panel.svg">
  <defs
     id="defs8807">
    <linearGradient
       id="linearGradient5359"
       osb:paint="solid">
      <stop
         style="stop-color:#ff0000;stop-opacity:1;"
         offset="0"
         id="stop5361" />
    </linearGradient>
  </defs>
  <sodipodi:namedview
     id="base"
     pagecolor="#ffffff"
     bordercolor="#666666"
     borderopacity="1.0"
     inkscape:pageopacity="0.0"
     inkscape:pageshadow="2"
     inkscape:zoom="2.2930418"
     inkscape:cx="467.99999"
     inkscape:cy="317.25"
     inkscape:document-units="px"
     inkscape:current-layer="layer4"
     showgrid="true"
     inkscape:snap-center="false"
     inkscape:snap-object-midpoints="true"
     inkscape:snap-to-guides="false"
     inkscape:snap-grids="true"
     inkscape:snap-midpoints="false"
     inkscape:window-width="2063"
     inkscape:window-height="1209"
     inkscape:window-x="89"
     inkscape:window-y="31"
     inkscape:window-maximized="0"
     inkscape:snap-nodes="true"
     inkscape:snap-bbox="false"
     inkscape:snap-bbox-midpoints="true"
     inkscape:snap-global="true"
     gridtolerance="4">
    <inkscape:grid
       type="xygrid"
       id="grid8813"
       empspacing="4"
       visible="true"
       enabled="true"
       snapvisiblegridlinesonly="false"
       units="in"
       spacingx="0.025in"
       spacingy="0.025in"
       color="#f700f9"
       opacity="0.1254902"
       dotted="true" />
  </sodipodi:namedview>
  <metadata
     id="metadata8810">
    <rdf:RDF>
      <cc:Work
         rdf:about="">
        <dc:format>image/svg+xml</dc:format>
        <dc:type
           rdf:resource="http://purl.org/dc/dcmitype/StillImage" />
        <dc:title />
      </cc:Work>
    </rdf:RDF>
  </metadata>
  <g
     inkscape:label="8HP panel"
     inkscape:groupmode="layer"
     id="layer1"
     style="display:inline">
    <g
       id="g16691"
       style="stroke-width:0.03543307;stroke-miterlimit:4;stroke-dasharray:none">
      <rect
         style="fill:none;stroke:#0000ff;stroke-width:0.03543307;stroke-miterlimit:4;stroke-dasharray:none;stroke-opacity:1"
         id="rect3093"
         width="143.74339"
         height="454.5"
         x="396.1283"
         y="507.86218" />
      <circle
         style="fill:none;stroke:#0000ff;stroke-width:0.03543307;stroke-miterlimit:4;stroke-dasharray:none;stroke-opacity:1"
         id="path3095"
         cx="513"
         cy="519.11218"
         r="5.625" />
      <circle
         id="path3097"
         style="fill:none;stroke:#0000ff;stroke-width:0.03543307;stroke-miterlimit:4;stroke-dasharray:none;stroke-opacity:1"
         cx="422.96008"
         cy="519.17468"
         r="5.625" />
      <circle
         style="fill:none;stroke:#0000ff;stroke-width:0.03543307;stroke-miterlimit:4;stroke-dasharray:none;stroke-opacity:1"
         id="path3099"
         cx="423"
         cy="953.36218"
         r="5.625" />
      <circle
         id="path3101"
         style="fill:none;stroke:#0000ff;stroke-width:0.03543307;stroke-miterlimit:4;stroke-dasharray:none;stroke-opacity:1"
         cx="513"
         cy="953.36218"
         r="5.625" />
    </g>
  </g>
  <g
     inkscape:groupmode="layer"
     id="layer3"
     inkscape:label="FP LASER HOLES"
     style="display:inline">
    <text
       xml:space="preserve"
       style="font-style:normal;font-variant:normal;font-weight:normal;font-stretch:normal;font-size:20px;line-height:125%;font-family:'Averia Sans';-inkscape-font-specification:'Averia Sans';letter-spacing:0px;word-spacing:0px;fill:#000000;fill-opacity:1;stroke:none"
       x="352.21191"
       y="792.32202"
       id="text9904"
       sodipodi:linespacing="125%"><tspan
         sodipodi:role="line"
         id="tspan9906"
         x="352.21191"
         y="792.32202" /></text>
    <ellipse
       style="display:inline;fill:none;stroke:#0000ff;stroke-width:0.03543307;stroke-miterlimit:4;stroke-dasharray:none;stroke-opacity:1"
       id="path3149"
       cx="423"
       cy="764.36218"
       rx="14.114821"
       ry="14.114065" />
    <ellipse
       id="path3919"
       style="display:inline;fill:none;stroke:#0000ff;stroke-width:0.03543307;stroke-miterlimit:4;stroke-dasharray:none;stroke-opacity:1"
       cx="513"
       cy="890.36218"
       rx="14.114821"
       ry="14.114065" />
    <ellipse
       style="display:inline;fill:none;stroke:#0000ff;stroke-width:0.03543307;stroke-miterlimit:4;stroke-dasharray:none;stroke-opacity:1"
       id="path3921"
       cx="423"
       cy="638.36218"
       rx="14.114821"
       ry="14.114065" />
    <ellipse
       id="path3923"
       style="display:inline;fill:none;stroke:#0000ff;stroke-width:0.03543307;stroke-miterlimit:4;stroke-dasharray:none;stroke-opacity:1"
       cx="432"
       cy="584.36218"
       rx="14.114821"
       ry="14.114065" />
    <ellipse
       ry="14.114065"
       rx="14.114821"
       cy="890.36218"
       cx="468"
       id="ellipse4420"
       style="display:inline;fill:none;stroke:#0000ff;stroke-width:0.03543307;stroke-miterlimit:4;stroke-dasharray:none;stroke-opacity:1" />
    <ellipse
       ry="14.114065"
       rx="14.114821"
       cy="836.36218"
       cx="432"
       id="ellipse4422"
       style="display:inline;fill:none;stroke:#0000ff;stroke-width:0.03543307;stroke-miterlimit:4;stroke-dasharray:none;stroke-opacity:1" />
    <ellipse
       ry="14.114065"
       rx="14.114821"
       cy="710.36218"
       cx="432"
       id="ellipse4424"
       style="display:inline;fill:none;stroke:#0000ff;stroke-width:0.03543307;stroke-miterlimit:4;stroke-dasharray:none;stroke-opacity:1" />
    <ellipse
       ry="14.114065"
       rx="14.114821"
       cy="584.36218"
       cx="504"
       id="ellipse4426"
       style="display:inline;fill:none;stroke:#0000ff;stroke-width:0.03543307;stroke-miterlimit:4;stroke-dasharray:none;stroke-opacity:1" />
    <ellipse
       style="display:inline;fill:none;stroke:#0000ff;stroke-width:0.03543307;stroke-miterlimit:4;stroke-dasharray:none;stroke-opacity:1"
       id="ellipse6470"
       cx="504"
       cy="674.36218"
       rx="14.114821"
       ry="14.114065" />
  </g>
  <g
     inkscape:groupmode="layer"
     id="layer4"
     inkscape:label="Engravings"
     style="display:inline">
    <text
       xml:space="preserve"
       style="font-style:normal;font-variant:normal;font-weight:normal;font-stretch:normal;font-size:20px;line-height:125%;font-family:'Averia Sans';-inkscape-font-specification:'Averia Sans';letter-spacing:0px;word-spacing:0px;fill:#000000;fill-opacity:1;stroke:#ff0000;stroke-width:0.03543307;stroke-miterlimit:4;stroke-dasharray:none;stroke-opacity:1"
       x="345.08755"
       y="796.32947"
       id="text9913"
       sodipodi:linespacing="125%"><tspan
         sodipodi:role="line"
         id="tspan9915"
         x="345.08755"
         y="796.32947" /></text>
    <text
       xml:space="preserve"
       style="font-style:normal;font-variant:normal;font-weight:normal;font-stretch:normal;font-size:12px;line-height:125%;font-family:'C64 User';-inkscape-font-specification:'C64 User';letter-spacing:0px;word-spacing:0px;fill:#000000;fill-opacity:1;stroke:none"
       x="499.66638"
       y="626.3988"
       id="text3966"
       sodipodi:linespacing="125%"><tspan
         sodipodi:role="line"
         id="tspan3968"
         x="499.66638"
         y="626.3988" /></text>
    <path
       style="fill:none;stroke:#ff0000;stroke-width:0.03543307;stroke-miterlimit:4;stroke-dasharray:none;stroke-opacity:1"
       d="m 400.5,935.36218 135,0"
       id="path11004"
       inkscape:connector-curvature="0" />
    <path
       style="fill:none;stroke:#ff0000;stroke-width:0.03543307;stroke-miterlimit:4;stroke-dasharray:none;stroke-opacity:1"
       d="m 400.5,534.86218 31.5,0"
       id="path11006"
       inkscape:connector-curvature="0" />
    <text
       xml:space="preserve"
       style="font-style:normal;font-weight:normal;font-size:15px;line-height:125%;font-family:sans-serif;letter-spacing:0px;word-spacing:0px;fill:#000000;fill-opacity:1;stroke:none;stroke-width:1px;stroke-linecap:butt;stroke-linejoin:miter;stroke-opacity:1"
       x="238.5"
       y="759.86218"
       id="text4491"
       sodipodi:linespacing="125%"><tspan
         sodipodi:role="line"
         id="tspan4493"
         x="238.5"
         y="759.86218" /></text>
    <text
       xml:space="preserve"
       style="font-style:normal;font-weight:normal;font-size:15px;line-height:125%;font-family:sans-serif;letter-spacing:0px;word-spacing:0px;fill:#000000;fill-opacity:1;stroke:none;stroke-width:1px;stroke-linecap:butt;stroke-linejoin:miter;stroke-opacity:1"
       x="243"
       y="777.86218"
       id="text4568"
       sodipodi:linespacing="125%"><tspan
         sodipodi:role="line"
         id="tspan4570"
         x="243"
         y="777.86218" /></text>
    <g
       id="g5549"
       transform="translate(375.82593,213.75)"
       style="display:inline;stroke:#ff0000;stroke-width:0.35433072;stroke-miterlimit:4;stroke-dasharray:none;stroke-opacity:1">
      <path
         transform="matrix(0,1,-1,0,0,0)"
         sodipodi:open="true"
         d="m 669.86628,-215.92407 a 4.4958982,8.4536753 0 0 1 4.4959,-8.45368 4.4958982,8.4536753 0 0 1 4.4959,8.45368"
         sodipodi:end="0"
         sodipodi:start="3.1415927"
         sodipodi:ry="8.4536753"
         sodipodi:rx="4.4958982"
         sodipodi:cy="-215.92407"
         sodipodi:cx="674.36218"
         sodipodi:type="arc"
         id="path5541"
         style="fill:none;fill-opacity:1;stroke:#ff0000;stroke-width:0.35433072;stroke-miterlimit:4;stroke-dasharray:none;stroke-opacity:1" />
      <path
         style="fill:none;fill-opacity:1;stroke:#ff0000;stroke-width:0.35433072;stroke-miterlimit:4;stroke-dasharray:none;stroke-opacity:1"
         id="path5543"
         sodipodi:type="arc"
         sodipodi:cx="683.354"
         sodipodi:cy="-215.92407"
         sodipodi:rx="4.4958982"
         sodipodi:ry="8.4536753"
         sodipodi:start="3.1415927"
         sodipodi:end="0"
         d="m 678.85811,-215.92407 a 4.4958982,8.4536753 0 0 1 4.49589,-8.45368 4.4958982,8.4536753 0 0 1 4.4959,8.45368"
         sodipodi:open="true"
         transform="matrix(0,1,-1,0,0,0)" />
      <path
         inkscape:connector-curvature="0"
         id="path5545"
         d="m 215.94355,669.854 0,18.00818"
         style="fill:none;fill-rule:evenodd;stroke:#ff0000;stroke-width:0.35433072;stroke-linecap:butt;stroke-linejoin:miter;stroke-miterlimit:4;stroke-dasharray:none;stroke-opacity:1" />
      <path
         inkscape:connector-curvature="0"
         id="path5547"
         d="m 207.10181,687.86218 0,-18.00818 8.84174,6.75306"
         style="fill:none;fill-rule:evenodd;stroke:#ff0000;stroke-width:0.35433072;stroke-linecap:butt;stroke-linejoin:miter;stroke-miterlimit:4;stroke-dasharray:none;stroke-opacity:1" />
    </g>
    <path
       style="fill:none;fill-rule:evenodd;stroke:#ff0000;stroke-width:0.03543307;stroke-linecap:butt;stroke-linejoin:miter;stroke-miterlimit:4;stroke-dasharray:none;stroke-opacity:1"
       d="m 445.5,597.86218 9,9 0,31.5 -13.5,0"
       id="path6507"
       inkscape:connector-curvature="0" />
    <text
       xml:space="preserve"
       style="font-style:normal;font-weight:normal;font-size:15px;line-height:125%;font-family:sans-serif;letter-spacing:0px;word-spacing:0px;fill:#000000;fill-opacity:1;stroke:none;stroke-width:1px;stroke-linecap:butt;stroke-linejoin:miter;stroke-opacity:1"
       x="306"
       y="764.36218"
       id="text6537"
       sodipodi:linespacing="125%"><tspan
         sodipodi:role="line"
         id="tspan6539"
         x="306"
         y="764.36218" /></text>
    <path
       inkscape:connector-curvature="0"
       id="path6593"
       d="m 445.41142,723.83624 9,9 0,31.5 -13.5,0"
       style="fill:none;fill-rule:evenodd;stroke:#ff0000;stroke-width:0.03543307;stroke-linecap:butt;stroke-linejoin:miter;stroke-miterlimit:4;stroke-dasharray:none;stroke-opacity:1" />
    <g
       id="g6642"
       transform="translate(-204.75,-200.25)"
       style="stroke-width:0.35433072;stroke-miterlimit:4;stroke-dasharray:none">
      <ellipse
         style="display:inline;fill:none;stroke:#ff0000;stroke-width:0.35433072;stroke-miterlimit:4;stroke-dasharray:none;stroke-opacity:1"
         id="ellipse6571"
         cx="490.5"
         cy="849.86218"
         rx="16.619425"
         ry="16.618668" />
      <path
         inkscape:connector-curvature="0"
         id="path6635"
         d="m 477,845.36218 9,0 0,-9 9,0 0,9 9,0 0,9 -9,0 0,9 -9,0 0,-9 -9,0 z"
         style="fill:none;fill-rule:evenodd;stroke:#ff0000;stroke-width:0.35433072;stroke-linecap:butt;stroke-linejoin:miter;stroke-miterlimit:4;stroke-dasharray:none;stroke-opacity:1" />
    </g>
    <g
       style="font-style:normal;font-weight:normal;font-size:15px;line-height:125%;font-family:sans-serif;letter-spacing:0px;word-spacing:0px;fill:none;fill-opacity:1;stroke:#ff0000;stroke-width:0.35433072;stroke-linecap:butt;stroke-linejoin:miter;stroke-miterlimit:4;stroke-dasharray:none;stroke-opacity:1"
       id="text6662"
       transform="translate(115.46798,-6.6065074)">
      <path
         d="m 459.9512,857.74384 1.58936,0 2.71728,4.06494 2.73194,-4.06494 1.58935,0 -3.51562,5.25146 3.75,5.68359 -1.58936,0 -3.07617,-4.65087 -3.09814,4.65087 -1.59668,0 3.9038,-5.8374 -3.40576,-5.09765 z"
         style="stroke-width:0.35433072;stroke-miterlimit:4;stroke-dasharray:none"
         id="path9819"
         inkscape:connector-curvature="0" />
      <path
         d="m 475.37601,862.7829 q 1.06201,0.22705 1.65527,0.94482 0.60059,0.71778 0.60059,1.77246 0,1.61866 -1.11328,2.50489 -1.11329,0.88623 -3.16407,0.88623 -0.68847,0 -1.4209,-0.13916 -0.72509,-0.13184 -1.50146,-0.40284 l 0,-1.42822 q 0.61523,0.35889 1.34766,0.54199 0.73242,0.18311 1.53076,0.18311 1.3916,0 2.1167,-0.54932 0.73242,-0.54931 0.73242,-1.59668 0,-0.96679 -0.68115,-1.50879 -0.67383,-0.54931 -1.88233,-0.54931 l -1.27441,0 0,-1.21582 1.33301,0 q 1.0913,0 1.66992,-0.43213 0.57861,-0.43945 0.57861,-1.25977 0,-0.84228 -0.60059,-1.28906 -0.59326,-0.4541 -1.70654,-0.4541 -0.60791,0 -1.30371,0.13183 -0.6958,0.13184 -1.53076,0.41016 l 0,-1.31836 q 0.84228,-0.23437 1.57471,-0.35156 0.73974,-0.11719 1.3916,-0.11719 1.68457,0 2.66601,0.76904 0.98145,0.76172 0.98145,2.06543 0,0.90821 -0.52002,1.53809 -0.52002,0.62256 -1.47949,0.86426 z"
         style="stroke-width:0.35433072;stroke-miterlimit:4;stroke-dasharray:none"
         id="path9821"
         inkscape:connector-curvature="0" />
    </g>
    <g
       style="font-style:normal;font-weight:normal;font-size:15px;line-height:125%;font-family:sans-serif;letter-spacing:0px;word-spacing:0px;fill:none;fill-opacity:1;stroke:#ff0000;stroke-width:0.35433072;stroke-linecap:butt;stroke-linejoin:miter;stroke-miterlimit:4;stroke-dasharray:none;stroke-opacity:1"
       id="text6670"
       transform="translate(72.921935,8.5026826)">
      <path
         d="m 504.79486,858.28577 1.58936,0 2.71728,4.06494 2.73194,-4.06494 1.58935,0 -3.51562,5.25146 3.75,5.6836 -1.58936,0 -3.07617,-4.65088 -3.09815,4.65088 -1.59668,0 3.90381,-5.83741 -3.40576,-5.09765 z"
         style="stroke-width:0.35433072;stroke-miterlimit:4;stroke-dasharray:none"
         id="path9824"
         inkscape:connector-curvature="0" />
      <path
         d="m 515.75189,858.28577 5.80811,0 0,1.24511 -4.45313,0 0,2.68067 q 0.32227,-0.10987 0.64453,-0.16113 0.32227,-0.0586 0.64454,-0.0586 1.83105,0 2.90039,1.00342 1.06933,1.00342 1.06933,2.71728 0,1.76514 -1.09863,2.74659 -1.09863,0.97412 -3.09815,0.97412 -0.68847,0 -1.40625,-0.11719 -0.71044,-0.11719 -1.47216,-0.35156 l 0,-1.48682 q 0.65918,0.35889 1.3623,0.53467 0.70313,0.17578 1.48682,0.17578 1.26709,0 2.00683,-0.6665 0.73975,-0.66651 0.73975,-1.80909 0,-1.14257 -0.73975,-1.80908 -0.73974,-0.6665 -2.00683,-0.6665 -0.59326,0 -1.18653,0.13183 -0.58593,0.13184 -1.20117,0.41016 l 0,-5.49316 z"
         style="stroke-width:0.35433072;stroke-miterlimit:4;stroke-dasharray:none"
         id="path9826"
         inkscape:connector-curvature="0" />
    </g>
    <g
       id="g6674"
       transform="matrix(1.6726346,0,0,1.6726346,-539.17727,-717.89671)"
       style="stroke:#ff0000;stroke-width:0.21183988;stroke-miterlimit:4;stroke-dasharray:none;stroke-opacity:1">
      <ellipse
         style="display:inline;fill:none;stroke:#ff0000;stroke-width:0.21183988;stroke-miterlimit:4;stroke-dasharray:none;stroke-opacity:1"
         id="ellipse6676"
         cx="490.5"
         cy="849.86218"
         rx="16.619425"
         ry="16.618668" />
      <path
         inkscape:connector-curvature="0"
         id="path6678"
         d="m 477,845.36218 9,0 0,-9 9,0 0,9 9,0 0,9 -9,0 0,9 -9,0 0,-9 -9,0 z"
         style="fill:none;fill-rule:evenodd;stroke:#ff0000;stroke-width:0.21183988;stroke-linecap:butt;stroke-linejoin:miter;stroke-miterlimit:4;stroke-dasharray:none;stroke-opacity:1" />
    </g>
    <path
       style="fill:none;fill-rule:evenodd;stroke:#ff0000;stroke-width:0.03543307;stroke-linecap:butt;stroke-linejoin:miter;stroke-miterlimit:4;stroke-dasharray:none;stroke-opacity:1"
       d="m 414,674.36218 27,0 0,-9 4.5,0 0,18 4.5,0 0,-18 4.5,0 0,9 9,0 0,-9 4.5,0 0,54 0,9 4.5,0 0,-9 4.5,0 0,18 4.5,0 0,-6.75 0,-2.25 13.5,0 0,9 4.5,0 0,-18 4.5,0 0,18 4.5,0 0,-9 13.5,0"
       id="path10707"
       inkscape:connector-curvature="0" />
    <text
       xml:space="preserve"
       style="font-style:normal;font-variant:normal;font-weight:normal;font-stretch:normal;font-size:20px;line-height:125%;font-family:'My Underwood';-inkscape-font-specification:'My Underwood';letter-spacing:0px;word-spacing:0px;display:inline;fill:#000000;fill-opacity:1;stroke:none;stroke-width:1px;stroke-linecap:butt;stroke-linejoin:miter;stroke-opacity:1"
       x="551.38086"
       y="631.33142"
       id="text5487"
       sodipodi:linespacing="125%"><tspan
         sodipodi:role="line"
         id="tspan5489"
         x="551.38086"
         y="631.33142">My Underwood 16pt</tspan></text>
    <text
       sodipodi:linespacing="125%"
       id="text5491"
       y="653.65851"
       x="551.34875"
       style="font-style:normal;font-variant:normal;font-weight:normal;font-stretch:normal;font-size:15px;line-height:125%;font-family:'My Underwood';-inkscape-font-specification:'My Underwood';letter-spacing:0px;word-spacing:0px;display:inline;fill:#000000;fill-opacity:1;stroke:none;stroke-width:1px;stroke-linecap:butt;stroke-linejoin:miter;stroke-opacity:1"
       xml:space="preserve"><tspan
         y="653.65851"
         x="551.34875"
         id="tspan5493"
         sodipodi:role="line">My Underwood 12pt</tspan></text>
    <text
       xml:space="preserve"
       style="font-style:normal;font-variant:normal;font-weight:normal;font-stretch:normal;font-size:12.5px;line-height:125%;font-family:'My Underwood';-inkscape-font-specification:'My Underwood';letter-spacing:0px;word-spacing:0px;display:inline;fill:#000000;fill-opacity:1;stroke:none;stroke-width:1px;stroke-linecap:butt;stroke-linejoin:miter;stroke-opacity:1"
       x="551.7677"
       y="675.40454"
       id="text5495"
       sodipodi:linespacing="125%"><tspan
         sodipodi:role="line"
         id="tspan5497"
         x="551.7677"
         y="675.40454">My Underwood 10pt</tspan></text>
    <path
       inkscape:connector-curvature="0"
       id="path16614"
       d="m 504,534.86218 31.5,0"
       style="fill:none;stroke:#ff0000;stroke-width:0.03543307;stroke-miterlimit:4;stroke-dasharray:none;stroke-opacity:1" />
    <g
       style="font-style:normal;font-variant:normal;font-weight:normal;font-stretch:normal;font-size:20px;line-height:125%;font-family:'My Underwood';-inkscape-font-specification:'My Underwood';letter-spacing:0px;word-spacing:0px;display:inline;fill:#000000;fill-opacity:1;stroke:none;stroke-width:0.03543307;stroke-linecap:butt;stroke-linejoin:miter;stroke-opacity:1;stroke-miterlimit:4;stroke-dasharray:none"
       id="text16616">
      <path
         d="m 438.09188,526.40507 q 0.33999,-0.66 0.97999,-0.88 0.64001,-0.24 1.42,-0.24 0.78001,0 1.60001,0.16 0.81999,0.14 1.53999,0.28 0.06,0.26 -0.02,0.46 -0.06,0.18 -0.18,0.34 -0.1,0.14 -0.21999,0.24 -0.10001,0.1 -0.10001,0.16 0.22001,0.04 0.28001,0.24 0.08,0.18 0.08,0.44 0.02,0.26 0.02,0.54 0.02,0.26 0.12,0.46 0.10001,0.2 0.32,0.28 0.24,0.08 0.72001,-0.06 0.33999,-0.26 0.35999,-0.62 0.02,-0.38 -0.06,-0.82 -0.08,-0.44 -0.17999,-0.9 -0.08,-0.48 0.04,-0.94 0.78001,-0.14 1.6,-0.2 0.82,-0.08 1.58,0 0.78001,0.06 1.44,0.36 0.66001,0.28 1.12,0.86 -0.3,0.36 -0.74,0.48 -0.44,0.1 -0.91999,0.14 -0.46001,0.02 -0.90001,0.04 -0.44,0 -0.76,0.16 -0.32,0.16 -0.48,0.54 -0.14,0.36 0,1.08 -0.52,0 -0.8,0.14 -0.26,0.14 -0.38,0.38 -0.1,0.22 -0.14,0.52 -0.02,0.28 -0.08,0.56 -0.06,0.28 -0.22,0.54 -0.14,0.26 -0.47999,0.44 0.59999,0.52 0.97999,1.2 0.40001,0.68 0.74,1.42 0.34001,0.72 0.7,1.44 0.36,0.7 0.88,1.28 0.12,-0.2 0.38001,-0.16 0.27999,0.04 0.56,0.2 0.29999,0.14 0.55999,0.36 0.26001,0.2 0.38001,0.32 l 0.2,1 q -0.66001,-0.18 -1.38,-0.08 -0.72001,0.08 -1.44,0.18 -0.72001,0.1 -1.38,0.06 -0.66001,-0.04 -1.18,-0.5 0.18,-0.52 0.38,-0.96 0.21999,-0.44 0.31999,-0.86 0.12,-0.44 0.08,-0.9 -0.02,-0.48 -0.27999,-1.06 l -1.02001,-1.56 q -1.02,1.3 -1.32,2.68 -0.27999,1.36 0.48,2.66 -0.57999,0.38 -1.13999,0.44 -0.56,0.06 -1.10001,0.06 -0.51999,-0.02 -1.04,0.02 -0.52,0.02 -1.02,0.34 -0.39999,-0.12 -0.56,-0.36 -0.14,-0.26 -0.15999,-0.54 -0.02,-0.28 0.04,-0.58 0.08,-0.32 0.16,-0.56 0.6,0.14 1.06001,-0.04 0.47999,-0.2 0.86,-0.58 0.38,-0.4 0.67999,-0.9 0.3,-0.52 0.58001,-1.04 0.27999,-0.54 0.53999,-1.02 0.28,-0.48 0.58001,-0.78 0.19999,-0.5 0.21999,-1.08 0.04,-0.6 -0.1,-1.12 -0.14001,-0.54 -0.44001,-0.96 -0.28,-0.42 -0.72,-0.6 0,-0.38 -0.18,-0.74 -0.18,-0.36 -0.5,-0.64 -0.3,-0.3 -0.71999,-0.52 -0.40001,-0.22 -0.84001,-0.34 -0.38,0.24 -0.76,0.14 -0.36,-0.1 -0.63999,-0.5 z"
         style="stroke-width:0.03543307;stroke-miterlimit:4;stroke-dasharray:none"
         id="path16828" />
    </g>
    <g
       style="font-style:normal;font-variant:normal;font-weight:normal;font-stretch:normal;font-size:20px;line-height:125%;font-family:'My Underwood';-inkscape-font-specification:'My Underwood';letter-spacing:0px;word-spacing:0px;display:inline;fill:#000000;fill-opacity:1;stroke:none;stroke-width:0.03543307;stroke-linecap:butt;stroke-linejoin:miter;stroke-opacity:1;stroke-miterlimit:4;stroke-dasharray:none"
       id="text16620">
      <path
         d="m 459.60618,528.70584 q 0,0.64 0.14,1.26 0.16,0.62 0.32,1.24 0.16,0.6 0.24,1.22 0.1,0.62 -0.02,1.28 0.26,0.4 0.32,0.78 0.08,0.38 0.06,0.8 -0.02,0.4 -0.06,0.82 -0.04,0.42 0.02,0.86 -0.12,-0.06 -0.22,-0.04 -0.1,0.02 -0.2,0.1 -0.1,0.06 -0.2,0.16 -0.1,0.08 -0.22,0.14 0.34,0.22 0.42,0.38 0.08,0.16 -0.02,0.3 -0.08,0.14 -0.26,0.28 -0.16,0.14 -0.32,0.3 -0.16,0.14 -0.24,0.34 -0.06,0.18 0.06,0.44 -0.52,0.4 -1.16,0.74 -0.64,0.34 -1.34,0.52 -0.68,0.2 -1.4,0.2 -0.72,0.02 -1.44,-0.24 -0.64,-0.18 -1.1,-0.52 -0.44,-0.36 -0.78,-0.8 -0.34,-0.46 -0.62,-1 -0.28,-0.54 -0.6,-1.12 -0.08,-0.9 -0.18,-1.86 -0.1,-0.96 -0.12,-1.92 0,-0.98 0.12,-1.94 0.12,-0.98 0.5,-1.9 0.46,-0.38 0.92,-0.88 0.48,-0.5 0.98,-0.92 0.5,-0.44 1.06,-0.72 0.56,-0.28 1.2,-0.22 0.52,0.4 1.08,0.54 0.58,0.14 1.12,0.28 0.56,0.12 1.06,0.34 0.5,0.22 0.88,0.76 z m -2.92,0.16 q -0.84,-0.26 -1.4,-0.02 -0.56,0.22 -0.98,0.7 -0.4,0.46 -0.74,1.06 -0.32,0.58 -0.7,1.02 -0.46,0.64 -0.48,1.48 0,0.84 0.24,1.72 0.26,0.86 0.66,1.72 0.4,0.84 0.8,1.5 0.38,0.3 0.92,0.48 0.54,0.18 1.06,0.2 0.52,0.02 0.92,-0.14 0.42,-0.16 0.56,-0.54 -0.06,-0.26 0.06,-0.46 0.14,-0.22 0.32,-0.38 0.2,-0.18 0.4,-0.32 0.2,-0.16 0.28,-0.32 0.1,-0.16 0.02,-0.34 -0.06,-0.2 -0.4,-0.46 0.12,-0.12 0.26,-0.3 0.14,-0.2 0.28,-0.2 l 0,-3.12 q -0.28,-0.32 -0.5,-0.82 -0.2,-0.5 -0.44,-1 -0.22,-0.5 -0.5,-0.9 -0.26,-0.42 -0.64,-0.56 z"
         style="stroke-width:0.03543307;stroke-miterlimit:4;stroke-dasharray:none"
         id="path16825" />
    </g>
    <g
       style="font-style:normal;font-variant:normal;font-weight:normal;font-stretch:normal;font-size:20px;line-height:125%;font-family:'My Underwood';-inkscape-font-specification:'My Underwood';letter-spacing:0px;word-spacing:0px;display:inline;fill:#000000;fill-opacity:1;stroke:none;stroke-width:0.03543307;stroke-linecap:butt;stroke-linejoin:miter;stroke-opacity:1;stroke-miterlimit:4;stroke-dasharray:none"
       id="text16624">
      <path
         d="m 473.57975,529.56134 q 0,0.76 -0.4,1.46 -0.38,0.68 -0.82,1.34 -0.42,0.66 -0.7,1.32 -0.26,0.66 -0.02,1.38 l -0.16,0 q -0.22,0.48 -0.14,0.88 0.08,0.38 0.32,0.72 0.24,0.32 0.58,0.64 0.36,0.3 0.7,0.62 0.34,0.32 0.6,0.68 0.28,0.34 0.36,0.78 -0.32,0.58 -0.68,0.64 -0.34,0.08 -0.72,-0.04 -0.36,-0.12 -0.74,-0.3 -0.38,-0.18 -0.76,-0.1 -0.44,-0.44 -0.68,-1.12 -0.22,-0.7 -0.4,-1.44 -0.16,-0.76 -0.36,-1.46 -0.2,-0.7 -0.58,-1.16 -0.36,-0.48 -1,-0.62 -0.62,-0.14 -1.66,0.26 -0.6,0.04 -0.82,0.2 -0.2,0.14 -0.18,0.36 0.02,0.2 0.16,0.46 0.14,0.26 0.22,0.54 0.1,0.28 0.04,0.54 -0.06,0.26 -0.46,0.48 l 0.5,0.72 -0.32,0.3 q 0.38,0.44 0.68,0.56 0.32,0.1 0.58,0.18 0.28,0.06 0.54,0.24 0.26,0.18 0.58,0.76 -0.36,0.08 -0.72,0.3 -0.34,0.24 -0.68,0.38 -0.32,0.14 -0.62,0.08 -0.28,-0.06 -0.54,-0.56 l -1.54,0.14 0,0.16 q 0,-0.12 -0.16,-0.14 -0.16,0 -0.4,0.02 -0.24,0.04 -0.5,0.06 -0.26,0.02 -0.46,-0.06 -0.18,-0.08 -0.26,-0.28 -0.08,-0.22 0.06,-0.66 l 2.06,-1.18 -0.34,-9.48 q -0.3,0.26 -0.46,0.26 -0.16,0 -0.24,-0.14 -0.06,-0.14 -0.12,-0.34 -0.04,-0.2 -0.14,-0.36 -0.08,-0.16 -0.26,-0.22 -0.16,-0.06 -0.5,0.12 0.26,-0.84 0.88,-1.12 0.62,-0.3 1.4,-0.32 0.8,-0.02 1.66,0.12 0.86,0.12 1.58,0.12 1.02,-0.08 1.92,0.06 0.9,0.14 1.66,0.54 0.78,0.38 1.38,1.04 0.62,0.66 1.08,1.64 z m -7.26,-1.74 q -0.06,0.2 -0.32,0.48 -0.26,0.26 -0.42,0.52 -0.16,0.24 -0.1,0.46 0.08,0.2 0.66,0.28 l -0.68,0.66 q 0.38,0.28 0.46,0.7 0.08,0.42 -0.32,0.68 0.26,0.44 0.52,0.58 0.28,0.12 0.54,0.1 0.26,-0.04 0.52,-0.16 0.28,-0.12 0.56,-0.2 0.28,-0.1 0.56,-0.08 0.3,0.02 0.6,0.28 0.52,0 0.74,-0.1 0.24,-0.1 0.3,-0.26 0.08,-0.16 0.06,-0.34 -0.02,-0.2 0.02,-0.36 0.04,-0.18 0.2,-0.3 0.16,-0.14 0.6,-0.18 -0.08,-0.32 -0.06,-0.56 0.04,-0.26 0.06,-0.48 0.04,-0.22 0.02,-0.46 -0.02,-0.24 -0.22,-0.56 -0.46,-0.32 -1.02,-0.48 -0.56,-0.16 -1.14,-0.2 -0.56,-0.04 -1.12,-0.02 -0.56,0 -1.02,0 z"
         style="stroke-width:0.03543307;stroke-miterlimit:4;stroke-dasharray:none"
         id="path16822" />
    </g>
    <g
       style="font-style:normal;font-variant:normal;font-weight:normal;font-stretch:normal;font-size:20px;line-height:125%;font-family:'My Underwood';-inkscape-font-specification:'My Underwood';letter-spacing:0px;word-spacing:0px;display:inline;fill:#000000;fill-opacity:1;stroke:none;stroke-width:0.03543307;stroke-linecap:butt;stroke-linejoin:miter;stroke-opacity:1;stroke-miterlimit:4;stroke-dasharray:none"
       id="text16628">
      <path
         d="m 489.16103,526.17318 q 0.92,0.06 1.92,0.02 1.02,-0.06 2.04,-0.06 1.02,0 2,0.1 0.98,0.1 1.82,0.44 -0.38,0.6 -1.04,0.78 -0.66,0.18 -1.42,0.2 -0.76,0 -1.54,-0.06 -0.78,-0.06 -1.4,0.08 -0.62,0.12 -1,0.54 -0.36,0.42 -0.32,1.38 0.84,0.2 1.72,0.18 0.9,-0.04 1.74,0 0.86,0.02 1.64,0.26 0.8,0.22 1.44,0.94 0.52,0.58 0.8,1.44 0.28,0.86 0.34,1.82 0.06,0.96 -0.06,1.92 -0.12,0.94 -0.38,1.72 -0.58,0.52 -1.22,1 -0.64,0.46 -1.34,0.76 -0.7,0.3 -1.46,0.4 -0.74,0.1 -1.52,-0.12 -0.58,0.08 -1.08,-0.12 -0.48,-0.18 -0.9,-0.5 -0.42,-0.32 -0.78,-0.7 -0.34,-0.4 -0.66,-0.72 -0.14,-0.9 0.04,-1.56 0.2,-0.68 0.96,-1.2 0.52,0.14 0.82,0.44 0.3,0.3 0.5,0.7 0.22,0.38 0.4,0.82 0.2,0.42 0.52,0.8 l 0,-0.86 q 0.34,-0.06 0.38,0.08 0.06,0.12 0,0.32 -0.04,0.18 -0.1,0.38 -0.04,0.2 0.1,0.26 0.44,-0.06 1.02,-0.18 0.58,-0.12 1.14,-0.32 0.58,-0.22 1.06,-0.54 0.5,-0.32 0.76,-0.82 0.18,-0.72 0.16,-1.5 0,-0.78 -0.24,-1.46 -0.24,-0.7 -0.74,-1.2 -0.5,-0.52 -1.28,-0.72 -0.52,-0.26 -1.02,-0.14 -0.48,0.1 -0.94,0.36 -0.46,0.26 -0.9,0.58 -0.44,0.32 -0.86,0.48 -0.42,0.16 -0.84,0.06 -0.4,-0.1 -0.78,-0.66 0.06,-0.7 0,-1.44 -0.04,-0.74 -0.06,-1.48 -0.02,-0.74 0.08,-1.46 0.1,-0.74 0.48,-1.44 z"
         style="stroke-width:0.03543307;stroke-miterlimit:4;stroke-dasharray:none"
         id="path16816" />
    </g>
    <g
       style="font-style:normal;font-variant:normal;font-weight:normal;font-stretch:normal;font-size:20px;line-height:125%;font-family:'My Underwood';-inkscape-font-specification:'My Underwood';letter-spacing:0px;word-spacing:0px;display:inline;fill:#000000;fill-opacity:1;stroke:none;stroke-width:0.03543307;stroke-linecap:butt;stroke-linejoin:miter;stroke-opacity:1;stroke-miterlimit:4;stroke-dasharray:none"
       id="text16632">
      <path
         d="m 480.20672,533.33839 q 0.26,-0.04 0.42,0.08 0.16,0.12 0.28,0.32 0.14,0.18 0.22,0.36 0.1,0.18 0.2,0.24 0.12,0.04 0.26,-0.08 0.16,-0.12 0.38,-0.56 -0.08,-0.14 -0.18,-0.34 -0.08,-0.22 -0.14,-0.44 -0.04,-0.22 -0.02,-0.42 0.02,-0.22 0.14,-0.36 0.58,-0.48 1.18,-0.52 0.6,-0.04 1.22,0.08 0.62,0.12 1.28,0.24 0.66,0.12 1.38,-0.02 0.12,0.52 -0.14,0.78 -0.24,0.24 -0.7,0.36 -0.44,0.12 -0.98,0.22 -0.52,0.08 -0.96,0.28 -0.44,0.18 -0.68,0.58 -0.22,0.4 -0.04,1.14 -0.26,-0.2 -0.46,-0.08 -0.2,0.1 -0.36,0.36 -0.14,0.26 -0.24,0.58 -0.08,0.3 -0.14,0.5 0.32,0.34 0.58,0.74 0.28,0.4 0.54,0.78 0.26,0.38 0.54,0.7 0.28,0.3 0.62,0.44 0.06,0.06 -0.02,0.12 -0.06,0.06 -0.12,0.14 -0.06,0.06 -0.06,0.12 0,0.06 0.2,0.12 0.12,0.3 0.28,0.38 0.18,0.08 0.34,0.08 0.18,-0.02 0.34,-0.06 0.16,-0.06 0.28,-0.04 0.14,0.02 0.22,0.18 0.08,0.14 0.08,0.52 -0.38,0.32 -0.84,0.44 -0.44,0.12 -0.94,0.14 -0.5,0 -1.02,-0.04 -0.52,-0.06 -1.02,-0.06 0.1,-0.28 -0.06,-0.4 -0.14,-0.12 -0.3,-0.28 0.14,0 0.38,-0.12 0.26,-0.12 0.44,-0.3 0.2,-0.18 0.26,-0.38 0.06,-0.22 -0.2,-0.4 -0.3,0.04 -0.46,-0.06 -0.16,-0.12 -0.26,-0.3 -0.08,-0.18 -0.14,-0.38 -0.04,-0.22 -0.12,-0.38 -0.06,-0.16 -0.2,-0.2 -0.14,-0.06 -0.4,0.08 -0.26,0.06 -0.64,0.38 -0.36,0.32 -0.58,0.72 -0.22,0.38 -0.2,0.76 0.04,0.38 0.56,0.58 0.12,0.26 -0.04,0.46 -0.14,0.18 -0.4,0.3 -0.26,0.12 -0.56,0.16 -0.28,0.04 -0.4,-0.02 l -2.98,-0.22 q 0.86,-0.18 1.42,-0.7 0.56,-0.54 1.02,-1.22 0.46,-0.7 0.9,-1.44 0.44,-0.74 1.04,-1.34 -0.16,-1.02 -0.86,-1.84 -0.68,-0.82 -1.58,-1.46 -0.4,0.14 -0.66,0.06 -0.26,-0.1 -0.48,-0.26 -0.2,-0.16 -0.42,-0.32 -0.22,-0.16 -0.54,-0.16 0,-0.34 0.22,-0.44 0.22,-0.1 0.52,-0.1 0.3,0 0.58,0.04 0.3,0.04 0.42,-0.02 l 0,-0.56 q 0.52,0.28 0.98,0.22 0.48,-0.06 0.9,-0.12 0.44,-0.06 0.88,0.02 0.44,0.06 0.9,0.6 l -0.86,1.04 z"
         style="stroke-width:0.03543307;stroke-miterlimit:4;stroke-dasharray:none"
         id="path16819" />
    </g>
    <g
       style="font-style:normal;font-variant:normal;font-weight:normal;font-stretch:normal;font-size:12.5px;line-height:125%;font-family:'My Underwood';-inkscape-font-specification:'My Underwood';letter-spacing:0px;word-spacing:0px;display:inline;fill:#000000;fill-opacity:1;stroke:none;stroke-width:0.03543307;stroke-linecap:butt;stroke-linejoin:miter;stroke-opacity:1;stroke-miterlimit:4;stroke-dasharray:none"
       id="text16636">
      <path
         d="m 457.00589,858.81219 2.58789,0 0,0.87281 -1.46484,0 0,9.39941 1.46484,0 0,0.8728 -2.58789,0 0,-11.14502 z"
         style="stroke-width:0.03543307;stroke-miterlimit:4;stroke-dasharray:none"
         id="path16748" />
      <path
         d="m 463.90198,863.10927 q 0.1625,-0.025 0.2625,0.05 0.1,0.075 0.175,0.2 0.0875,0.1125 0.1375,0.225 0.0625,0.1125 0.125,0.15 0.075,0.025 0.1625,-0.05 0.1,-0.075 0.2375,-0.35 -0.05,-0.0875 -0.1125,-0.2125 -0.05,-0.1375 -0.0875,-0.275 -0.025,-0.1375 -0.0125,-0.2625 0.0125,-0.1375 0.0875,-0.225 0.3625,-0.3 0.7375,-0.325 0.375,-0.025 0.7625,0.05 0.3875,0.075 0.8,0.15 0.4125,0.075 0.8625,-0.0125 0.075,0.325 -0.0875,0.4875 -0.15,0.15 -0.4375,0.225 -0.275,0.075 -0.6125,0.1375 -0.325,0.05 -0.6,0.175 -0.275,0.1125 -0.425,0.3625 -0.1375,0.25 -0.025,0.7125 -0.1625,-0.125 -0.2875,-0.05 -0.125,0.0625 -0.225,0.225 -0.0875,0.1625 -0.15,0.3625 -0.05,0.1875 -0.0875,0.3125 0.2,0.2125 0.3625,0.4625 0.175,0.25 0.3375,0.4875 0.1625,0.2375 0.3375,0.4375 0.175,0.1875 0.3875,0.275 0.0375,0.0375 -0.0125,0.075 -0.0375,0.0375 -0.075,0.0875 -0.0375,0.0375 -0.0375,0.075 0,0.0375 0.125,0.075 0.075,0.1875 0.175,0.2375 0.1125,0.05 0.2125,0.05 0.1125,-0.0125 0.2125,-0.0375 0.1,-0.0375 0.175,-0.025 0.0875,0.0125 0.1375,0.1125 0.05,0.0875 0.05,0.325 -0.2375,0.2 -0.525,0.275 -0.275,0.075 -0.5875,0.0875 -0.3125,0 -0.6375,-0.025 -0.325,-0.0375 -0.6375,-0.0375 0.0625,-0.175 -0.0375,-0.25 -0.0875,-0.075 -0.1875,-0.175 0.0875,0 0.2375,-0.075 0.1625,-0.075 0.275,-0.1875 0.125,-0.1125 0.1625,-0.2375 0.0375,-0.1375 -0.125,-0.25 -0.1875,0.025 -0.2875,-0.0375 -0.1,-0.075 -0.1625,-0.1875 -0.05,-0.1125 -0.0875,-0.2375 -0.025,-0.1375 -0.075,-0.2375 -0.0375,-0.1 -0.125,-0.125 -0.0875,-0.0375 -0.25,0.05 -0.1625,0.0375 -0.4,0.2375 -0.225,0.2 -0.3625,0.45 -0.1375,0.2375 -0.125,0.475 0.025,0.2375 0.35,0.3625 0.075,0.1625 -0.025,0.2875 -0.0875,0.1125 -0.25,0.1875 -0.1625,0.075 -0.35,0.1 -0.175,0.025 -0.25,-0.0125 l -1.8625,-0.1375 q 0.5375,-0.1125 0.8875,-0.4375 0.35,-0.3375 0.6375,-0.7625 0.2875,-0.4375 0.5625,-0.9 0.275,-0.4625 0.65,-0.8375 -0.1,-0.6375 -0.5375,-1.15 -0.425,-0.5125 -0.9875,-0.9125 -0.25,0.0875 -0.4125,0.0375 -0.1625,-0.0625 -0.3,-0.1625 -0.125,-0.1 -0.2625,-0.2 -0.1375,-0.1 -0.3375,-0.1 0,-0.2125 0.1375,-0.275 0.1375,-0.0625 0.325,-0.0625 0.1875,0 0.3625,0.025 0.1875,0.025 0.2625,-0.0125 l 0,-0.35 q 0.325,0.175 0.6125,0.1375 0.3,-0.0375 0.5625,-0.075 0.275,-0.0375 0.55,0.0125 0.275,0.0375 0.5625,0.375 l -0.5375,0.65 z"
         style="stroke-width:0.03543307;stroke-miterlimit:4;stroke-dasharray:none"
         id="path16750" />
      <path
         d="m 469.18519,860.03427 q 0.6875,0 1.45,0 0.775,-0.0125 1.525,0.05 0.7625,0.05 1.4625,0.1875 0.7125,0.1375 1.275,0.4375 -0.1125,0.325 -0.2875,0.5875 -0.175,0.2625 -0.3875,0.5125 -0.2125,0.2375 -0.45,0.475 -0.2375,0.225 -0.475,0.4625 0.1,0.2375 0.3,0.4 0.2125,0.1625 0.4375,0.2875 0.225,0.125 0.425,0.2375 0.2125,0.1125 0.325,0.25 0.125,0.1375 0.1125,0.325 0,0.175 -0.2125,0.4375 l 0.5375,0.975 0.1125,-0.1125 q 0.2375,0.075 0.225,0.2375 0,0.15 -0.0875,0.3125 -0.0875,0.1625 -0.1875,0.3125 -0.1,0.1375 -0.0625,0.2125 -0.0375,-0.0375 -0.05,-0.1625 -0.0125,-0.1375 -0.0375,-0.2875 -0.0125,-0.15 -0.0625,-0.2875 -0.05,-0.15 -0.175,-0.225 l -0.1,0 q -0.0875,0.1625 -0.075,0.3625 0.025,0.2 0.075,0.4125 0.05,0.2125 0.0875,0.425 0.05,0.2125 0.025,0.4 -0.0125,0.1875 -0.1375,0.3375 -0.125,0.1375 -0.425,0.225 -0.1875,-0.1375 -0.2875,-0.125 -0.0875,0 -0.15,0.0875 -0.05,0.0875 -0.0875,0.2125 -0.0375,0.125 -0.1,0.2375 -0.05,0.1 -0.15,0.15 -0.0875,0.05 -0.275,-0.025 -0.525,0.2375 -1.0375,0.2875 -0.5125,0.0625 -1,0 -0.4875,-0.0625 -0.95,-0.2125 -0.4625,-0.1375 -0.9,-0.3 -0.3375,-0.2875 -0.5375,-0.625 -0.1875,-0.3375 -0.2375,-0.675 -0.0375,-0.3375 0.0875,-0.6625 0.1375,-0.3375 0.4625,-0.625 0.2,-0.2 0.3125,-0.175 0.125,0.025 0.225,0.125 0.1,0.1 0.2125,0.2 0.125,0.1 0.325,0.0625 -0.0375,0.4 0.0625,0.7875 0.1,0.3875 0.3125,0.6875 0.225,0.2875 0.5625,0.4625 0.3375,0.1625 0.7875,0.125 0.325,-0.125 0.65,-0.275 0.3375,-0.15 0.625,-0.3625 0.2875,-0.2125 0.5125,-0.5 0.2375,-0.3 0.35,-0.7 -0.1125,-0.2 -0.1875,-0.5625 -0.0625,-0.375 -0.2125,-0.7125 -0.15,-0.35 -0.45,-0.5875 -0.2875,-0.2375 -0.8625,-0.2 -0.2375,0.0875 -0.45,0.1375 -0.2,0.05 -0.4,0.1 -0.1875,0.05 -0.375,0.125 -0.1875,0.0625 -0.3875,0.175 -0.1375,-0.2875 -0.05,-0.5625 0.0875,-0.2875 0.2875,-0.55 0.2125,-0.275 0.4625,-0.5375 0.25,-0.2625 0.45,-0.525 0.2125,-0.2625 0.3,-0.525 0.0875,-0.2625 -0.05,-0.5375 -0.625,-0.2125 -0.975,-0.1875 -0.3375,0.025 -0.5375,0.2 -0.1875,0.1625 -0.3,0.4375 -0.1125,0.2625 -0.2625,0.5375 -0.15,0.275 -0.4125,0.5125 -0.25,0.2375 -0.7375,0.3375 -0.125,-0.3625 -0.2375,-0.7625 -0.1,-0.4125 -0.1125,-0.8125 0,-0.4125 0.1125,-0.7875 0.125,-0.375 0.45,-0.6625 z"
         style="stroke-width:0.03543307;stroke-miterlimit:4;stroke-dasharray:none"
         id="path16752" />
      <path
         d="m 479.50955,858.81219 0,11.14502 -2.58789,0 0,-0.8728 1.45874,0 0,-9.39941 -1.45874,0 0,-0.87281 2.58789,0 z"
         style="stroke-width:0.03543307;stroke-miterlimit:4;stroke-dasharray:none"
         id="path16754" />
    </g>
    <g
       style="font-style:normal;font-variant:normal;font-weight:normal;font-stretch:normal;font-size:12.5px;line-height:125%;font-family:'My Underwood';-inkscape-font-specification:'My Underwood';letter-spacing:0px;word-spacing:0px;display:inline;fill:#000000;fill-opacity:1;stroke:none;stroke-width:0.03543307;stroke-linecap:butt;stroke-linejoin:miter;stroke-opacity:1;stroke-miterlimit:4;stroke-dasharray:none"
       id="text16640">
      <path
         d="m 502.61273,858.81219 2.58789,0 0,0.87281 -1.46484,0 0,9.39941 1.46484,0 0,0.8728 -2.58789,0 0,-11.14502 z"
         style="stroke-width:0.03543307;stroke-miterlimit:4;stroke-dasharray:none"
         id="path16739" />
      <path
         d="m 509.50883,863.10927 q 0.1625,-0.025 0.2625,0.05 0.1,0.075 0.175,0.2 0.0875,0.1125 0.1375,0.225 0.0625,0.1125 0.125,0.15 0.075,0.025 0.1625,-0.05 0.1,-0.075 0.2375,-0.35 -0.05,-0.0875 -0.1125,-0.2125 -0.05,-0.1375 -0.0875,-0.275 -0.025,-0.1375 -0.0125,-0.2625 0.0125,-0.1375 0.0875,-0.225 0.3625,-0.3 0.7375,-0.325 0.375,-0.025 0.7625,0.05 0.3875,0.075 0.8,0.15 0.4125,0.075 0.8625,-0.0125 0.075,0.325 -0.0875,0.4875 -0.15,0.15 -0.4375,0.225 -0.275,0.075 -0.6125,0.1375 -0.325,0.05 -0.6,0.175 -0.275,0.1125 -0.425,0.3625 -0.1375,0.25 -0.025,0.7125 -0.1625,-0.125 -0.2875,-0.05 -0.125,0.0625 -0.225,0.225 -0.0875,0.1625 -0.15,0.3625 -0.05,0.1875 -0.0875,0.3125 0.2,0.2125 0.3625,0.4625 0.175,0.25 0.3375,0.4875 0.1625,0.2375 0.3375,0.4375 0.175,0.1875 0.3875,0.275 0.0375,0.0375 -0.0125,0.075 -0.0375,0.0375 -0.075,0.0875 -0.0375,0.0375 -0.0375,0.075 0,0.0375 0.125,0.075 0.075,0.1875 0.175,0.2375 0.1125,0.05 0.2125,0.05 0.1125,-0.0125 0.2125,-0.0375 0.1,-0.0375 0.175,-0.025 0.0875,0.0125 0.1375,0.1125 0.05,0.0875 0.05,0.325 -0.2375,0.2 -0.525,0.275 -0.275,0.075 -0.5875,0.0875 -0.3125,0 -0.6375,-0.025 -0.325,-0.0375 -0.6375,-0.0375 0.0625,-0.175 -0.0375,-0.25 -0.0875,-0.075 -0.1875,-0.175 0.0875,0 0.2375,-0.075 0.1625,-0.075 0.275,-0.1875 0.125,-0.1125 0.1625,-0.2375 0.0375,-0.1375 -0.125,-0.25 -0.1875,0.025 -0.2875,-0.0375 -0.1,-0.075 -0.1625,-0.1875 -0.05,-0.1125 -0.0875,-0.2375 -0.025,-0.1375 -0.075,-0.2375 -0.0375,-0.1 -0.125,-0.125 -0.0875,-0.0375 -0.25,0.05 -0.1625,0.0375 -0.4,0.2375 -0.225,0.2 -0.3625,0.45 -0.1375,0.2375 -0.125,0.475 0.025,0.2375 0.35,0.3625 0.075,0.1625 -0.025,0.2875 -0.0875,0.1125 -0.25,0.1875 -0.1625,0.075 -0.35,0.1 -0.175,0.025 -0.25,-0.0125 l -1.8625,-0.1375 q 0.5375,-0.1125 0.8875,-0.4375 0.35,-0.3375 0.6375,-0.7625 0.2875,-0.4375 0.5625,-0.9 0.275,-0.4625 0.65,-0.8375 -0.1,-0.6375 -0.5375,-1.15 -0.425,-0.5125 -0.9875,-0.9125 -0.25,0.0875 -0.4125,0.0375 -0.1625,-0.0625 -0.3,-0.1625 -0.125,-0.1 -0.2625,-0.2 -0.1375,-0.1 -0.3375,-0.1 0,-0.2125 0.1375,-0.275 0.1375,-0.0625 0.325,-0.0625 0.1875,0 0.3625,0.025 0.1875,0.025 0.2625,-0.0125 l 0,-0.35 q 0.325,0.175 0.6125,0.1375 0.3,-0.0375 0.5625,-0.075 0.275,-0.0375 0.55,0.0125 0.275,0.0375 0.5625,0.375 l -0.5375,0.65 z"
         style="stroke-width:0.03543307;stroke-miterlimit:4;stroke-dasharray:none"
         id="path16741" />
      <path
         d="m 514.67953,860.17177 q 0.575,0.0375 1.2,0.0125 0.6375,-0.0375 1.275,-0.0375 0.6375,0 1.25,0.0625 0.6125,0.0625 1.1375,0.275 -0.2375,0.375 -0.65,0.4875 -0.4125,0.1125 -0.8875,0.125 -0.475,0 -0.9625,-0.0375 -0.4875,-0.0375 -0.875,0.05 -0.3875,0.075 -0.625,0.3375 -0.225,0.2625 -0.2,0.8625 0.525,0.125 1.075,0.1125 0.5625,-0.025 1.0875,0 0.5375,0.0125 1.025,0.1625 0.5,0.1375 0.9,0.5875 0.325,0.3625 0.5,0.9 0.175,0.5375 0.2125,1.1375 0.0375,0.6 -0.0375,1.2 -0.075,0.5875 -0.2375,1.075 -0.3625,0.325 -0.7625,0.625 -0.4,0.2875 -0.8375,0.475 -0.4375,0.1875 -0.9125,0.25 -0.4625,0.0625 -0.95,-0.075 -0.3625,0.05 -0.675,-0.075 -0.3,-0.1125 -0.5625,-0.3125 -0.2625,-0.2 -0.4875,-0.4375 -0.2125,-0.25 -0.4125,-0.45 -0.0875,-0.5625 0.025,-0.975 0.125,-0.425 0.6,-0.75 0.325,0.0875 0.5125,0.275 0.1875,0.1875 0.3125,0.4375 0.1375,0.2375 0.25,0.5125 0.125,0.2625 0.325,0.5 l 0,-0.5375 q 0.2125,-0.0375 0.2375,0.05 0.0375,0.075 0,0.2 -0.025,0.1125 -0.0625,0.2375 -0.025,0.125 0.0625,0.1625 0.275,-0.0375 0.6375,-0.1125 0.3625,-0.075 0.7125,-0.2 0.3625,-0.1375 0.6625,-0.3375 0.3125,-0.2 0.475,-0.5125 0.1125,-0.45 0.1,-0.9375 0,-0.4875 -0.15,-0.9125 -0.15,-0.4375 -0.4625,-0.75 -0.3125,-0.325 -0.8,-0.45 -0.325,-0.1625 -0.6375,-0.0875 -0.3,0.0625 -0.5875,0.225 -0.2875,0.1625 -0.5625,0.3625 -0.275,0.2 -0.5375,0.3 -0.2625,0.1 -0.525,0.0375 -0.25,-0.0625 -0.4875,-0.4125 0.0375,-0.4375 0,-0.9 -0.025,-0.4625 -0.0375,-0.925 -0.0125,-0.4625 0.05,-0.9125 0.0625,-0.4625 0.3,-0.9 z"
         style="stroke-width:0.03543307;stroke-miterlimit:4;stroke-dasharray:none"
         id="path16743" />
      <path
         d="m 524.28632,858.81219 0,11.14502 -2.58789,0 0,-0.8728 1.45874,0 0,-9.39941 -1.45874,0 0,-0.87281 2.58789,0 z"
         style="stroke-width:0.03543307;stroke-miterlimit:4;stroke-dasharray:none"
         id="path16745" />
    </g>
    <path
       inkscape:connector-curvature="0"
       id="path16644"
       d="m 416.25,672.11218 27,0 0,-9 4.5,0 0,18 4.5,0 0,-18 4.5,0 0,9 9,0 0,-9 4.5,0 0,54 0,9 4.5,0 0,-9 4.5,0 0,18 4.5,0 0,-6.75 0,-2.25 13.5,0 0,9 4.5,0 0,-18 4.5,0 0,18 4.5,0 0,-9 13.5,0"
       style="fill:none;fill-rule:evenodd;stroke:#ff0000;stroke-width:0.03543307;stroke-linecap:butt;stroke-linejoin:miter;stroke-miterlimit:4;stroke-dasharray:none;stroke-opacity:1" />
    <text
       xml:space="preserve"
       style="font-style:normal;font-variant:normal;font-weight:normal;font-stretch:normal;font-size:15px;line-height:125%;font-family:'My Underwood';-inkscape-font-specification:'My Underwood';letter-spacing:0px;word-spacing:0px;display:inline;fill:#000000;fill-opacity:1;stroke:none;stroke-width:1px;stroke-linecap:butt;stroke-linejoin:miter;stroke-opacity:1"
       x="631.55737"
       y="737.64783"
       id="text16646"
       sodipodi:linespacing="125%"><tspan
         sodipodi:role="line"
         id="tspan16648"
         x="631.55737"
         y="737.64783">x3</tspan></text>
    <text
       sodipodi:linespacing="125%"
       id="text16650"
       y="746.82745"
       x="616.03247"
       style="font-style:normal;font-variant:normal;font-weight:normal;font-stretch:normal;font-size:15px;line-height:125%;font-family:'My Underwood';-inkscape-font-specification:'My Underwood';letter-spacing:0px;word-spacing:0px;display:inline;fill:#000000;fill-opacity:1;stroke:none;stroke-width:1px;stroke-linecap:butt;stroke-linejoin:miter;stroke-opacity:1"
       xml:space="preserve"><tspan
         y="746.82745"
         x="616.03247"
         id="tspan16652"
         sodipodi:role="line">x</tspan></text>
    <g
       style="font-style:normal;font-variant:normal;font-weight:normal;font-stretch:normal;font-size:12.5px;line-height:125%;font-family:'My Underwood';-inkscape-font-specification:'My Underwood';letter-spacing:0px;word-spacing:0px;display:inline;fill:#000000;fill-opacity:1;stroke:none;stroke-width:0.03543307;stroke-linecap:butt;stroke-linejoin:miter;stroke-opacity:1;stroke-miterlimit:4;stroke-dasharray:none"
       id="text16654">
      <path
         d="m 461.9446,620.82914 q 0.2,-0.375 0.5375,-0.475 0.3375,-0.1 0.725,-0.0875 0.4,0.0125 0.8,0.0625 0.4125,0.0375 0.75,-0.0375 0.275,0.725 0.275,1.4 0.0125,0.675 -0.05,1.35 -0.05,0.675 -0.0875,1.375 -0.025,0.7 0.1875,1.4625 -0.0875,0.2875 0.025,0.525 0.125,0.225 0.35,0.3625 0.2375,0.125 0.5375,0.1375 0.3,0 0.5875,-0.1625 0.125,0.275 0.2625,0.2875 0.1375,0.0125 0.2875,-0.0375 0.15,-0.0625 0.3125,-0.0875 0.1625,-0.025 0.325,0.1625 l 0.5375,0.7625 q -0.725,0.325 -1.5125,0.3625 -0.775,0.0375 -1.5875,-0.0125 -0.8125,-0.0625 -1.6375,-0.1375 -0.825,-0.075 -1.625,0 0.075,-0.35 0.325,-0.5125 0.2625,-0.175 0.575,-0.2625 0.325,-0.0875 0.65,-0.1625 0.3375,-0.075 0.575,-0.2375 0.2375,-0.175 0.325,-0.5 0.0875,-0.325 -0.075,-0.925 -0.125,-0.2375 -0.175,-0.5125 -0.05,-0.275 -0.0875,-0.5625 -0.0375,-0.2875 -0.075,-0.5625 -0.025,-0.275 -0.1125,-0.5125 0.125,-0.2 0.15,-0.45 0.0375,-0.2625 0.0125,-0.525 -0.0125,-0.275 -0.0625,-0.55 -0.05,-0.275 -0.1,-0.525 -0.275,0.0375 -0.5125,0.025 -0.225,-0.025 -0.45,-0.075 -0.2125,-0.0625 -0.45,-0.15 -0.2375,-0.1 -0.5125,-0.2125 z"
         style="stroke-width:0.03543307;stroke-miterlimit:4;stroke-dasharray:none"
         id="path16810" />
    </g>
    <text
       xml:space="preserve"
       style="font-style:normal;font-variant:normal;font-weight:normal;font-stretch:normal;font-size:12.5px;line-height:125%;font-family:'My Underwood';-inkscape-font-specification:'My Underwood';letter-spacing:0px;word-spacing:0px;display:inline;fill:#000000;fill-opacity:1;stroke:none;stroke-width:1px;stroke-linecap:butt;stroke-linejoin:miter;stroke-opacity:1"
       x="671.25964"
       y="798.82141"
       id="text16658"
       sodipodi:linespacing="125%"><tspan
         sodipodi:role="line"
         id="tspan16660"
         x="671.25964"
         y="798.82141">Op 4 5</tspan></text>
    <g
       id="g4469"
       transform="matrix(0.20000006,0,0,0.20000006,428.39999,779.7897)"
       style="display:inline;stroke:#ff0000;stroke-width:0.1771653;stroke-miterlimit:4;stroke-dasharray:none;stroke-opacity:1">
      <path
         inkscape:connector-curvature="0"
         id="path4463"
         d="m 153,800.36218 0,90 54,0 0,-9 -45,0 0,-81 z"
         style="fill:none;fill-rule:evenodd;stroke:#ff0000;stroke-width:0.1771653;stroke-linecap:butt;stroke-linejoin:miter;stroke-miterlimit:4;stroke-dasharray:none;stroke-opacity:1" />
      <path
         inkscape:connector-curvature="0"
         id="path4465"
         d="m 171,800.36218 0,9 45,0 0,81 9,0 0,-90 z"
         style="fill:none;fill-rule:evenodd;stroke:#ff0000;stroke-width:0.1771653;stroke-linecap:butt;stroke-linejoin:miter;stroke-miterlimit:4;stroke-dasharray:none;stroke-opacity:1" />
      <path
         inkscape:connector-curvature="0"
         id="path4467"
         d="m 234,800.36218 0,90 9,0 0,-90 z"
         style="fill:none;fill-rule:evenodd;stroke:#ff0000;stroke-width:0.1771653;stroke-linecap:butt;stroke-linejoin:miter;stroke-miterlimit:4;stroke-dasharray:none;stroke-opacity:1" />
    </g>
    <g
       style="font-style:normal;font-variant:normal;font-weight:normal;font-stretch:normal;font-size:12.5px;line-height:125%;font-family:'My Underwood';-inkscape-font-specification:'My Underwood';letter-spacing:0px;word-spacing:0px;display:inline;fill:#000000;fill-opacity:1;stroke:none;stroke-width:0.03543307;stroke-linecap:butt;stroke-linejoin:miter;stroke-opacity:1;stroke-miterlimit:4;stroke-dasharray:none"
       id="text16698">
      <path
         d="m 501.20768,606.51138 q 0.6875,0 1.45,0 0.775,-0.0125 1.525,0.05 0.7625,0.05 1.4625,0.1875 0.7125,0.1375 1.275,0.4375 -0.1125,0.325 -0.2875,0.5875 -0.175,0.2625 -0.3875,0.5125 -0.2125,0.2375 -0.45,0.475 -0.2375,0.225 -0.475,0.4625 0.1,0.2375 0.3,0.4 0.2125,0.1625 0.4375,0.2875 0.225,0.125 0.425,0.2375 0.2125,0.1125 0.325,0.25 0.125,0.1375 0.1125,0.325 0,0.175 -0.2125,0.4375 l 0.5375,0.975 0.1125,-0.1125 q 0.2375,0.075 0.225,0.2375 0,0.15 -0.0875,0.3125 -0.0875,0.1625 -0.1875,0.3125 -0.1,0.1375 -0.0625,0.2125 -0.0375,-0.0375 -0.05,-0.1625 -0.0125,-0.1375 -0.0375,-0.2875 -0.0125,-0.15 -0.0625,-0.2875 -0.05,-0.15 -0.175,-0.225 l -0.1,0 q -0.0875,0.1625 -0.075,0.3625 0.025,0.2 0.075,0.4125 0.05,0.2125 0.0875,0.425 0.05,0.2125 0.025,0.4 -0.0125,0.1875 -0.1375,0.3375 -0.125,0.1375 -0.425,0.225 -0.1875,-0.1375 -0.2875,-0.125 -0.0875,0 -0.15,0.0875 -0.05,0.0875 -0.0875,0.2125 -0.0375,0.125 -0.1,0.2375 -0.05,0.1 -0.15,0.15 -0.0875,0.05 -0.275,-0.025 -0.525,0.2375 -1.0375,0.2875 -0.5125,0.0625 -1,0 -0.4875,-0.0625 -0.95,-0.2125 -0.4625,-0.1375 -0.9,-0.3 -0.3375,-0.2875 -0.5375,-0.625 -0.1875,-0.3375 -0.2375,-0.675 -0.0375,-0.3375 0.0875,-0.6625 0.1375,-0.3375 0.4625,-0.625 0.2,-0.2 0.3125,-0.175 0.125,0.025 0.225,0.125 0.1,0.1 0.2125,0.2 0.125,0.1 0.325,0.0625 -0.0375,0.4 0.0625,0.7875 0.1,0.3875 0.3125,0.6875 0.225,0.2875 0.5625,0.4625 0.3375,0.1625 0.7875,0.125 0.325,-0.125 0.65,-0.275 0.3375,-0.15 0.625,-0.3625 0.2875,-0.2125 0.5125,-0.5 0.2375,-0.3 0.35,-0.7 -0.1125,-0.2 -0.1875,-0.5625 -0.0625,-0.375 -0.2125,-0.7125 -0.15,-0.35 -0.45,-0.5875 -0.2875,-0.2375 -0.8625,-0.2 -0.2375,0.0875 -0.45,0.1375 -0.2,0.05 -0.4,0.1 -0.1875,0.05 -0.375,0.125 -0.1875,0.0625 -0.3875,0.175 -0.1375,-0.2875 -0.05,-0.5625 0.0875,-0.2875 0.2875,-0.55 0.2125,-0.275 0.4625,-0.5375 0.25,-0.2625 0.45,-0.525 0.2125,-0.2625 0.3,-0.525 0.0875,-0.2625 -0.05,-0.5375 -0.625,-0.2125 -0.975,-0.1875 -0.3375,0.025 -0.5375,0.2 -0.1875,0.1625 -0.3,0.4375 -0.1125,0.2625 -0.2625,0.5375 -0.15,0.275 -0.4125,0.5125 -0.25,0.2375 -0.7375,0.3375 -0.125,-0.3625 -0.2375,-0.7625 -0.1,-0.4125 -0.1125,-0.8125 0,-0.4125 0.1125,-0.7875 0.125,-0.375 0.45,-0.6625 z"
         style="stroke-width:0.03543307;stroke-miterlimit:4;stroke-dasharray:none"
         id="path16813" />
    </g>
    <g
       style="font-style:normal;font-variant:normal;font-weight:normal;font-stretch:normal;font-size:12.5px;line-height:125%;font-family:'My Underwood';-inkscape-font-specification:'My Underwood';letter-spacing:0px;word-spacing:0px;display:inline;fill:#000000;fill-opacity:1;stroke:none;stroke-width:0.03543307;stroke-linecap:butt;stroke-linejoin:miter;stroke-opacity:1;stroke-miterlimit:4;stroke-dasharray:none"
       id="text16702">
      <path
         d="m 506.39377,697.58304 q 0.0375,0.475 0.1875,0.95 0.15,0.475 0.225,0.9375 0.075,0.45 -0.0375,0.875 -0.1,0.425 -0.5875,0.775 -0.0875,0 -0.225,-0.125 -0.1375,-0.125 -0.3,-0.225 -0.15,-0.1 -0.3,-0.1 -0.15,0 -0.275,0.2375 l 0.425,0.325 -0.85,0 0.1125,0 0,0.325 -0.1125,0 q -0.1125,-0.2375 -0.2125,-0.3125 -0.1,-0.0875 -0.2125,-0.0625 -0.1,0.0125 -0.2125,0.1 -0.1125,0.075 -0.25,0.1625 -0.1375,0.075 -0.3,0.125 -0.15,0.05 -0.3375,-0.0125 l 0.225,0.425 q -0.2375,-0.1125 -0.425,-0.05 -0.1875,0.05 -0.3375,0.2125 -0.15,0.15 -0.2875,0.35 -0.125,0.2 -0.2375,0.3625 l 0.3125,0.45 q -0.0625,0 -0.1875,-0.0125 -0.125,-0.0125 -0.125,-0.1125 l -0.2125,0.125 q 0.325,0.075 0.7625,0.1875 0.45,0.1 0.9,0.2 0.45,0.1 0.8625,0.175 0.425,0.0625 0.7,0.0625 0.375,0 0.55,-0.075 0.1875,-0.0875 0.2875,-0.2375 0.1,-0.15 0.1625,-0.375 0.0625,-0.225 0.1875,-0.5125 -0.125,-0.0375 -0.1,-0.0875 0.025,-0.0625 0.1,-0.125 0.0875,-0.075 0.175,-0.15 0.1,-0.0875 0.1375,-0.175 0.3375,0.125 0.475,0.3625 0.15,0.2375 0.2,0.5375 0.05,0.3 0.05,0.6625 0,0.35 0.0375,0.7125 -0.1625,0.3625 -0.3875,0.475 -0.225,0.1 -0.4875,0.1375 -0.25,0.025 -0.5,0.075 -0.25,0.0375 -0.4625,0.275 -0.4,-0.1125 -0.8125,-0.3625 -0.4,-0.2625 -0.8125,-0.45 -0.4125,-0.1875 -0.8375,-0.2125 -0.425,-0.0375 -0.8625,0.2875 -0.125,0.1125 -0.2125,0.2125 -0.0875,0.1 -0.175,0.15 -0.0875,0.05 -0.175,0.05 -0.0875,-0.0125 -0.2,-0.1 -0.1625,-0.2 -0.2375,-0.5 -0.075,-0.3 -0.0875,-0.625 0,-0.3375 0.025,-0.6625 0.0375,-0.3375 0.0875,-0.5875 0.1,-0.4875 0.375,-0.825 0.2875,-0.3375 0.6625,-0.575 0.3875,-0.25 0.825,-0.4375 0.45,-0.1875 0.875,-0.3625 0.425,-0.175 0.7875,-0.375 0.3625,-0.2 0.5875,-0.475 0.225,-0.275 0.2625,-0.65 0.05,-0.3875 -0.175,-0.9375 -0.3625,-0.4125 -0.7125,-0.4875 -0.3375,-0.0875 -0.7,-0.0375 -0.35,0.05 -0.725,0.15 -0.375,0.1 -0.7875,0.0625 0.125,0.075 0.25,0.275 0.1375,0.2 0.2,0.4625 0.0625,0.25 0.025,0.5125 -0.025,0.2625 -0.225,0.475 -0.1,0.1625 -0.2375,0.225 -0.125,0.0625 -0.275,0.0625 -0.1375,0 -0.275,-0.05 -0.125,-0.0625 -0.2125,-0.1375 -0.2875,-0.1625 -0.3375,-0.3875 -0.05,-0.2375 0,-0.5 0.0625,-0.2625 0.15,-0.525 0.0875,-0.275 0.0875,-0.5125 0.5625,-0.45 1.1875,-0.6875 0.6375,-0.2375 1.2625,-0.25 0.625,-0.0125 1.225,0.225 0.6,0.225 1.0875,0.7125 z"
         style="stroke-width:0.03543307;stroke-miterlimit:4;stroke-dasharray:none"
         id="path16807" />
    </g>
    <g
       style="font-style:normal;font-variant:normal;font-weight:normal;font-stretch:normal;font-size:12.5px;line-height:125%;font-family:'My Underwood';-inkscape-font-specification:'My Underwood';letter-spacing:0px;word-spacing:0px;display:inline;fill:#000000;fill-opacity:1;stroke:none;stroke-width:0.03543307;stroke-linecap:butt;stroke-linejoin:miter;stroke-opacity:1;stroke-miterlimit:4;stroke-dasharray:none"
       id="text16706">
      <path
         d="m 465.43491,747.92228 q 0,1.05 0.0625,2.175 0.075,1.1125 0.475,2.2625 0.1625,-0.1625 0.3125,-0.0875 0.15,0.075 0.2875,0.225 0.1375,0.15 0.275,0.2875 0.15,0.1375 0.3125,0.1 0.0375,0.1625 -0.0125,0.2625 -0.0375,0.0875 -0.1375,0.15 -0.0875,0.0625 -0.2,0.1125 -0.1,0.05 -0.175,0.125 l -0.7625,0.1125 q -0.1625,0.4 -0.1125,0.625 0.05,0.2125 0.2125,0.3375 0.1625,0.1125 0.3875,0.175 0.2375,0.05 0.45,0.1375 0.2125,0.075 0.35,0.225 0.1375,0.1375 0.1125,0.4375 -0.4875,0 -0.9625,0.0625 -0.475,0.0625 -0.9625,0.1125 -0.475,0.05 -0.9875,0.05 -0.5125,0 -1.075,-0.1125 -0.1375,-0.35 -0.0375,-0.5125 0.1125,-0.175 0.325,-0.2625 0.225,-0.0875 0.5,-0.1375 0.2875,-0.05 0.4875,-0.1625 0.2125,-0.1125 0.3,-0.325 0.0875,-0.225 -0.075,-0.65 -0.35,-0.1125 -0.7,-0.1375 -0.35,-0.025 -0.7,-0.0125 -0.3375,0 -0.6625,0.0125 -0.325,0.0125 -0.65,-0.0125 -0.3125,-0.0375 -0.6125,-0.15 -0.2875,-0.1125 -0.55,-0.35 0.4875,-0.6875 0.9375,-1.4125 0.4625,-0.725 0.9125,-1.4375 0.45,-0.725 0.925,-1.425 0.475,-0.7 1,-1.35 0.1625,-0.0375 0.2875,0.0125 0.125,0.05 0.2125,0.15 0.0875,0.0875 0.15,0.2 0.0625,0.1125 0.1,0.1875 z m -0.8625,1.5125 q -0.2875,0.2 -0.5375,0.5 -0.25,0.2875 -0.4625,0.625 -0.2,0.325 -0.3375,0.675 -0.125,0.35 -0.1625,0.675 0.225,0.25 0.4875,0.35 0.2625,0.1 0.5875,0.1 0.35,-0.1375 0.4875,-0.35 0.15,-0.2125 0.1625,-0.4625 0.025,-0.2625 -0.0375,-0.5375 -0.0625,-0.275 -0.1375,-0.55 -0.0625,-0.2875 -0.1,-0.55 -0.025,-0.2625 0.05,-0.475 z"
         style="stroke-width:0.03543307;stroke-miterlimit:4;stroke-dasharray:none"
         id="path16804" />
    </g>
    <g
       style="font-style:normal;font-variant:normal;font-weight:normal;font-stretch:normal;font-size:12.5px;line-height:125%;font-family:'My Underwood';-inkscape-font-specification:'My Underwood';letter-spacing:0px;word-spacing:0px;display:inline;fill:#000000;fill-opacity:1;stroke:none;stroke-width:0.03543307;stroke-linecap:butt;stroke-linejoin:miter;stroke-opacity:1;stroke-miterlimit:4;stroke-dasharray:none"
       id="text16710">
      <path
         d="m 429.57446,859.58796 q 0.575,0.0375 1.2,0.0125 0.6375,-0.0375 1.275,-0.0375 0.6375,0 1.25,0.0625 0.6125,0.0625 1.1375,0.275 -0.2375,0.375 -0.65,0.4875 -0.4125,0.1125 -0.8875,0.125 -0.475,0 -0.9625,-0.0375 -0.4875,-0.0375 -0.875,0.05 -0.3875,0.075 -0.625,0.3375 -0.225,0.2625 -0.2,0.8625 0.525,0.125 1.075,0.1125 0.5625,-0.025 1.0875,0 0.5375,0.0125 1.025,0.1625 0.5,0.1375 0.9,0.5875 0.325,0.3625 0.5,0.9 0.175,0.5375 0.2125,1.1375 0.0375,0.6 -0.0375,1.2 -0.075,0.5875 -0.2375,1.075 -0.3625,0.325 -0.7625,0.625 -0.4,0.2875 -0.8375,0.475 -0.4375,0.1875 -0.9125,0.25 -0.4625,0.0625 -0.95,-0.075 -0.3625,0.05 -0.675,-0.075 -0.3,-0.1125 -0.5625,-0.3125 -0.2625,-0.2 -0.4875,-0.4375 -0.2125,-0.25 -0.4125,-0.45 -0.0875,-0.5625 0.025,-0.975 0.125,-0.425 0.6,-0.75 0.325,0.0875 0.5125,0.275 0.1875,0.1875 0.3125,0.4375 0.1375,0.2375 0.25,0.5125 0.125,0.2625 0.325,0.5 l 0,-0.5375 q 0.2125,-0.0375 0.2375,0.05 0.0375,0.075 0,0.2 -0.025,0.1125 -0.0625,0.2375 -0.025,0.125 0.0625,0.1625 0.275,-0.0375 0.6375,-0.1125 0.3625,-0.075 0.7125,-0.2 0.3625,-0.1375 0.6625,-0.3375 0.3125,-0.2 0.475,-0.5125 0.1125,-0.45 0.1,-0.9375 0,-0.4875 -0.15,-0.9125 -0.15,-0.4375 -0.4625,-0.75 -0.3125,-0.325 -0.8,-0.45 -0.325,-0.1625 -0.6375,-0.0875 -0.3,0.0625 -0.5875,0.225 -0.2875,0.1625 -0.5625,0.3625 -0.275,0.2 -0.5375,0.3 -0.2625,0.1 -0.525,0.0375 -0.25,-0.0625 -0.4875,-0.4125 0.0375,-0.4375 0,-0.9 -0.025,-0.4625 -0.0375,-0.925 -0.0125,-0.4625 0.05,-0.9125 0.0625,-0.4625 0.3,-0.9 z"
         style="stroke-width:0.03543307;stroke-miterlimit:4;stroke-dasharray:none"
         id="path16757" />
    </g>
    <text
       xml:space="preserve"
       style="font-style:normal;font-weight:normal;font-size:12.5px;line-height:125%;font-family:sans-serif;letter-spacing:0px;word-spacing:0px;fill:#000000;fill-opacity:1;stroke:none;stroke-width:1px;stroke-linecap:butt;stroke-linejoin:miter;stroke-opacity:1"
       x="623.25"
       y="766.61218"
       id="text16726"
       sodipodi:linespacing="125%"><tspan
         sodipodi:role="line"
         id="tspan16728"
         x="623.25"
         y="766.61218" /></text>
    <g
       style="font-style:normal;font-variant:normal;font-weight:normal;font-stretch:normal;font-size:12.5px;line-height:125%;font-family:'My Underwood';-inkscape-font-specification:'My Underwood';letter-spacing:0px;word-spacing:0px;display:inline;fill:#000000;fill-opacity:1;stroke:none;stroke-width:0.03543307;stroke-linecap:butt;stroke-linejoin:miter;stroke-opacity:1;stroke-miterlimit:4;stroke-dasharray:none"
       id="text16730">
      <path
         d="m 451.49906,787.07985 q 0.1625,-0.025 0.2625,0.05 0.1,0.075 0.175,0.2 0.0875,0.1125 0.1375,0.225 0.0625,0.1125 0.125,0.15 0.075,0.025 0.1625,-0.05 0.1,-0.075 0.2375,-0.35 -0.05,-0.0875 -0.1125,-0.2125 -0.05,-0.1375 -0.0875,-0.275 -0.025,-0.1375 -0.0125,-0.2625 0.0125,-0.1375 0.0875,-0.225 0.3625,-0.3 0.7375,-0.325 0.375,-0.025 0.7625,0.05 0.3875,0.075 0.8,0.15 0.4125,0.075 0.8625,-0.0125 0.075,0.325 -0.0875,0.4875 -0.15,0.15 -0.4375,0.225 -0.275,0.075 -0.6125,0.1375 -0.325,0.05 -0.6,0.175 -0.275,0.1125 -0.425,0.3625 -0.1375,0.25 -0.025,0.7125 -0.1625,-0.125 -0.2875,-0.05 -0.125,0.0625 -0.225,0.225 -0.0875,0.1625 -0.15,0.3625 -0.05,0.1875 -0.0875,0.3125 0.2,0.2125 0.3625,0.4625 0.175,0.25 0.3375,0.4875 0.1625,0.2375 0.3375,0.4375 0.175,0.1875 0.3875,0.275 0.0375,0.0375 -0.0125,0.075 -0.0375,0.0375 -0.075,0.0875 -0.0375,0.0375 -0.0375,0.075 0,0.0375 0.125,0.075 0.075,0.1875 0.175,0.2375 0.1125,0.05 0.2125,0.05 0.1125,-0.0125 0.2125,-0.0375 0.1,-0.0375 0.175,-0.025 0.0875,0.0125 0.1375,0.1125 0.05,0.0875 0.05,0.325 -0.2375,0.2 -0.525,0.275 -0.275,0.075 -0.5875,0.0875 -0.3125,0 -0.6375,-0.025 -0.325,-0.0375 -0.6375,-0.0375 0.0625,-0.175 -0.0375,-0.25 -0.0875,-0.075 -0.1875,-0.175 0.0875,0 0.2375,-0.075 0.1625,-0.075 0.275,-0.1875 0.125,-0.1125 0.1625,-0.2375 0.0375,-0.1375 -0.125,-0.25 -0.1875,0.025 -0.2875,-0.0375 -0.1,-0.075 -0.1625,-0.1875 -0.05,-0.1125 -0.0875,-0.2375 -0.025,-0.1375 -0.075,-0.2375 -0.0375,-0.1 -0.125,-0.125 -0.0875,-0.0375 -0.25,0.05 -0.1625,0.0375 -0.4,0.2375 -0.225,0.2 -0.3625,0.45 -0.1375,0.2375 -0.125,0.475 0.025,0.2375 0.35,0.3625 0.075,0.1625 -0.025,0.2875 -0.0875,0.1125 -0.25,0.1875 -0.1625,0.075 -0.35,0.1 -0.175,0.025 -0.25,-0.0125 l -1.8625,-0.1375 q 0.5375,-0.1125 0.8875,-0.4375 0.35,-0.3375 0.6375,-0.7625 0.2875,-0.4375 0.5625,-0.9 0.275,-0.4625 0.65,-0.8375 -0.1,-0.6375 -0.5375,-1.15 -0.425,-0.5125 -0.9875,-0.9125 -0.25,0.0875 -0.4125,0.0375 -0.1625,-0.0625 -0.3,-0.1625 -0.125,-0.1 -0.2625,-0.2 -0.1375,-0.1 -0.3375,-0.1 0,-0.2125 0.1375,-0.275 0.1375,-0.0625 0.325,-0.0625 0.1875,0 0.3625,0.025 0.1875,0.025 0.2625,-0.0125 l 0,-0.35 q 0.325,0.175 0.6125,0.1375 0.3,-0.0375 0.5625,-0.075 0.275,-0.0375 0.55,0.0125 0.275,0.0375 0.5625,0.375 l -0.5375,0.65 z"
         style="stroke-width:0.03543307;stroke-miterlimit:4;stroke-dasharray:none"
         id="path16783" />
      <path
         d="m 456.78226,784.00485 q 0.6875,0 1.45,0 0.775,-0.0125 1.525,0.05 0.7625,0.05 1.4625,0.1875 0.7125,0.1375 1.275,0.4375 -0.1125,0.325 -0.2875,0.5875 -0.175,0.2625 -0.3875,0.5125 -0.2125,0.2375 -0.45,0.475 -0.2375,0.225 -0.475,0.4625 0.1,0.2375 0.3,0.4 0.2125,0.1625 0.4375,0.2875 0.225,0.125 0.425,0.2375 0.2125,0.1125 0.325,0.25 0.125,0.1375 0.1125,0.325 0,0.175 -0.2125,0.4375 l 0.5375,0.975 0.1125,-0.1125 q 0.2375,0.075 0.225,0.2375 0,0.15 -0.0875,0.3125 -0.0875,0.1625 -0.1875,0.3125 -0.1,0.1375 -0.0625,0.2125 -0.0375,-0.0375 -0.05,-0.1625 -0.0125,-0.1375 -0.0375,-0.2875 -0.0125,-0.15 -0.0625,-0.2875 -0.05,-0.15 -0.175,-0.225 l -0.1,0 q -0.0875,0.1625 -0.075,0.3625 0.025,0.2 0.075,0.4125 0.05,0.2125 0.0875,0.425 0.05,0.2125 0.025,0.4 -0.0125,0.1875 -0.1375,0.3375 -0.125,0.1375 -0.425,0.225 -0.1875,-0.1375 -0.2875,-0.125 -0.0875,0 -0.15,0.0875 -0.05,0.0875 -0.0875,0.2125 -0.0375,0.125 -0.1,0.2375 -0.05,0.1 -0.15,0.15 -0.0875,0.05 -0.275,-0.025 -0.525,0.2375 -1.0375,0.2875 -0.5125,0.0625 -1,0 -0.4875,-0.0625 -0.95,-0.2125 -0.4625,-0.1375 -0.9,-0.3 -0.3375,-0.2875 -0.5375,-0.625 -0.1875,-0.3375 -0.2375,-0.675 -0.0375,-0.3375 0.0875,-0.6625 0.1375,-0.3375 0.4625,-0.625 0.2,-0.2 0.3125,-0.175 0.125,0.025 0.225,0.125 0.1,0.1 0.2125,0.2 0.125,0.1 0.325,0.0625 -0.0375,0.4 0.0625,0.7875 0.1,0.3875 0.3125,0.6875 0.225,0.2875 0.5625,0.4625 0.3375,0.1625 0.7875,0.125 0.325,-0.125 0.65,-0.275 0.3375,-0.15 0.625,-0.3625 0.2875,-0.2125 0.5125,-0.5 0.2375,-0.3 0.35,-0.7 -0.1125,-0.2 -0.1875,-0.5625 -0.0625,-0.375 -0.2125,-0.7125 -0.15,-0.35 -0.45,-0.5875 -0.2875,-0.2375 -0.8625,-0.2 -0.2375,0.0875 -0.45,0.1375 -0.2,0.05 -0.4,0.1 -0.1875,0.05 -0.375,0.125 -0.1875,0.0625 -0.3875,0.175 -0.1375,-0.2875 -0.05,-0.5625 0.0875,-0.2875 0.2875,-0.55 0.2125,-0.275 0.4625,-0.5375 0.25,-0.2625 0.45,-0.525 0.2125,-0.2625 0.3,-0.525 0.0875,-0.2625 -0.05,-0.5375 -0.625,-0.2125 -0.975,-0.1875 -0.3375,0.025 -0.5375,0.2 -0.1875,0.1625 -0.3,0.4375 -0.1125,0.2625 -0.2625,0.5375 -0.15,0.275 -0.4125,0.5125 -0.25,0.2375 -0.7375,0.3375 -0.125,-0.3625 -0.2375,-0.7625 -0.1,-0.4125 -0.1125,-0.8125 0,-0.4125 0.1125,-0.7875 0.125,-0.375 0.45,-0.6625 z"
         style="stroke-width:0.03543307;stroke-miterlimit:4;stroke-dasharray:none"
         id="path16785" />
      <path
         d="m 464.6286,786.60358 7.82471,0 0,1.02539 -7.82471,0 0,-1.02539 z m 0,2.49023 7.82471,0 0,1.0376 -7.82471,0 0,-1.0376 z"
         style="stroke-width:0.03543307;stroke-miterlimit:4;stroke-dasharray:none"
         id="path16787" />
      <path
         d="m 475.71527,781.76735 q 0.1125,-0.05 0.175,0.0125 0.075,0.0625 0.1375,0.1625 0.0625,0.1 0.125,0.2125 0.075,0.1 0.1875,0.1375 -0.075,0.575 -0.375,1.1125 -0.2875,0.525 -0.6875,0.925 0.075,0.3625 0.0125,0.7875 -0.0625,0.4125 -0.1625,0.8375 -0.1,0.425 -0.2,0.85 -0.1,0.4125 -0.1,0.775 0.2125,0.575 0.4125,1.2375 0.2125,0.6625 0.45,1.3375 0.2375,0.675 0.5,1.3125 0.275,0.6375 0.6,1.1625 -0.2125,0.0875 -0.3,0.275 -0.0875,0.1875 -0.175,0.3375 -0.075,0.1625 -0.2,0.2 -0.125,0.05 -0.4,-0.15 -0.65,-1.0875 -1.1125,-2.4 -0.45,-1.325 -0.5875,-2.6875 -0.125,-1.3625 0.125,-2.6875 0.2625,-1.3375 1.0375,-2.4625 l 0.5375,-1.2875 0,0 z"
         style="stroke-width:0.03543307;stroke-miterlimit:4;stroke-dasharray:none"
         id="path16789" />
      <path
         d="m 477.32836,784.36735 q 0.2,-0.375 0.5375,-0.475 0.3375,-0.1 0.725,-0.0875 0.4,0.0125 0.8,0.0625 0.4125,0.0375 0.75,-0.0375 0.275,0.725 0.275,1.4 0.0125,0.675 -0.05,1.35 -0.05,0.675 -0.0875,1.375 -0.025,0.7 0.1875,1.4625 -0.0875,0.2875 0.025,0.525 0.125,0.225 0.35,0.3625 0.2375,0.125 0.5375,0.1375 0.3,0 0.5875,-0.1625 0.125,0.275 0.2625,0.2875 0.1375,0.0125 0.2875,-0.0375 0.15,-0.0625 0.3125,-0.0875 0.1625,-0.025 0.325,0.1625 l 0.5375,0.7625 q -0.725,0.325 -1.5125,0.3625 -0.775,0.0375 -1.5875,-0.0125 -0.8125,-0.0625 -1.6375,-0.1375 -0.825,-0.075 -1.625,0 0.075,-0.35 0.325,-0.5125 0.2625,-0.175 0.575,-0.2625 0.325,-0.0875 0.65,-0.1625 0.3375,-0.075 0.575,-0.2375 0.2375,-0.175 0.325,-0.5 0.0875,-0.325 -0.075,-0.925 -0.125,-0.2375 -0.175,-0.5125 -0.05,-0.275 -0.0875,-0.5625 -0.0375,-0.2875 -0.075,-0.5625 -0.025,-0.275 -0.1125,-0.5125 0.125,-0.2 0.15,-0.45 0.0375,-0.2625 0.0125,-0.525 -0.0125,-0.275 -0.0625,-0.55 -0.05,-0.275 -0.1,-0.525 -0.275,0.0375 -0.5125,0.025 -0.225,-0.025 -0.45,-0.075 -0.2125,-0.0625 -0.45,-0.15 -0.2375,-0.1 -0.5125,-0.2125 z"
         style="stroke-width:0.03543307;stroke-miterlimit:4;stroke-dasharray:none"
         id="path16791" />
      <path
         d="m 489.78119,784.44293 0,3.39966 3.39966,0 0,1.0376 -3.39966,0 0,3.39966 -1.02539,0 0,-3.39966 -3.39966,0 0,-1.0376 3.39966,0 0,-3.39966 1.02539,0 z"
         style="stroke-width:0.03543307;stroke-miterlimit:4;stroke-dasharray:none"
         id="path16793" />
      <path
         d="m 500.15531,784.36735 q 0.0375,0.475 0.1875,0.95 0.15,0.475 0.225,0.9375 0.075,0.45 -0.0375,0.875 -0.1,0.425 -0.5875,0.775 -0.0875,0 -0.225,-0.125 -0.1375,-0.125 -0.3,-0.225 -0.15,-0.1 -0.3,-0.1 -0.15,0 -0.275,0.2375 l 0.425,0.325 -0.85,0 0.1125,0 0,0.325 -0.1125,0 q -0.1125,-0.2375 -0.2125,-0.3125 -0.1,-0.0875 -0.2125,-0.0625 -0.1,0.0125 -0.2125,0.1 -0.1125,0.075 -0.25,0.1625 -0.1375,0.075 -0.3,0.125 -0.15,0.05 -0.3375,-0.0125 l 0.225,0.425 q -0.2375,-0.1125 -0.425,-0.05 -0.1875,0.05 -0.3375,0.2125 -0.15,0.15 -0.2875,0.35 -0.125,0.2 -0.2375,0.3625 l 0.3125,0.45 q -0.0625,0 -0.1875,-0.0125 -0.125,-0.0125 -0.125,-0.1125 l -0.2125,0.125 q 0.325,0.075 0.7625,0.1875 0.45,0.1 0.9,0.2 0.45,0.1 0.8625,0.175 0.425,0.0625 0.7,0.0625 0.375,0 0.55,-0.075 0.1875,-0.0875 0.2875,-0.2375 0.1,-0.15 0.1625,-0.375 0.0625,-0.225 0.1875,-0.5125 -0.125,-0.0375 -0.1,-0.0875 0.025,-0.0625 0.1,-0.125 0.0875,-0.075 0.175,-0.15 0.1,-0.0875 0.1375,-0.175 0.3375,0.125 0.475,0.3625 0.15,0.2375 0.2,0.5375 0.05,0.3 0.05,0.6625 0,0.35 0.0375,0.7125 -0.1625,0.3625 -0.3875,0.475 -0.225,0.1 -0.4875,0.1375 -0.25,0.025 -0.5,0.075 -0.25,0.0375 -0.4625,0.275 -0.4,-0.1125 -0.8125,-0.3625 -0.4,-0.2625 -0.8125,-0.45 -0.4125,-0.1875 -0.8375,-0.2125 -0.425,-0.0375 -0.8625,0.2875 -0.125,0.1125 -0.2125,0.2125 -0.0875,0.1 -0.175,0.15 -0.0875,0.05 -0.175,0.05 -0.0875,-0.0125 -0.2,-0.1 -0.1625,-0.2 -0.2375,-0.5 -0.075,-0.3 -0.0875,-0.625 0,-0.3375 0.025,-0.6625 0.0375,-0.3375 0.0875,-0.5875 0.1,-0.4875 0.375,-0.825 0.2875,-0.3375 0.6625,-0.575 0.3875,-0.25 0.825,-0.4375 0.45,-0.1875 0.875,-0.3625 0.425,-0.175 0.7875,-0.375 0.3625,-0.2 0.5875,-0.475 0.225,-0.275 0.2625,-0.65 0.05,-0.3875 -0.175,-0.9375 -0.3625,-0.4125 -0.7125,-0.4875 -0.3375,-0.0875 -0.7,-0.0375 -0.35,0.05 -0.725,0.15 -0.375,0.1 -0.7875,0.0625 0.125,0.075 0.25,0.275 0.1375,0.2 0.2,0.4625 0.0625,0.25 0.025,0.5125 -0.025,0.2625 -0.225,0.475 -0.1,0.1625 -0.2375,0.225 -0.125,0.0625 -0.275,0.0625 -0.1375,0 -0.275,-0.05 -0.125,-0.0625 -0.2125,-0.1375 -0.2875,-0.1625 -0.3375,-0.3875 -0.05,-0.2375 0,-0.5 0.0625,-0.2625 0.15,-0.525 0.0875,-0.275 0.0875,-0.5125 0.5625,-0.45 1.1875,-0.6875 0.6375,-0.2375 1.2625,-0.25 0.625,-0.0125 1.225,0.225 0.6,0.225 1.0875,0.7125 z"
         style="stroke-width:0.03543307;stroke-miterlimit:4;stroke-dasharray:none"
         id="path16795" />
      <path
         d="m 501.85258,781.90485 q 0.375,-0.075 0.5375,0.075 0.175,0.1375 0.2625,0.3875 0.1,0.25 0.1625,0.55 0.075,0.2875 0.25,0.5 l 0.1875,-0.325 q 0,0.3625 0.075,0.7625 0.0875,0.4 0.225,0.75 0.15,0.35 0.35,0.6125 0.2,0.2625 0.4375,0.3375 -0.275,0.275 -0.3625,0.6 -0.075,0.3125 -0.0625,0.675 0.0125,0.35 0.075,0.725 0.0625,0.375 0.0875,0.75 0.0375,0.3625 -0.0125,0.7125 -0.0375,0.3375 -0.25,0.6375 -0.25,0.4125 -0.35,0.9 -0.1,0.475 -0.2125,0.975 -0.1,0.5 -0.275,0.9625 -0.175,0.4625 -0.575,0.8375 l -0.55,-0.125 q 0.3375,-1 0.625,-2.05 0.3,-1.05 0.4375,-2.15 0.15,-1.1 0.075,-2.25 -0.075,-1.1625 -0.475,-2.375 -0.0875,-0.2875 -0.275,-0.5875 -0.1875,-0.3125 -0.3375,-0.625 -0.15,-0.3125 -0.2,-0.625 -0.0375,-0.325 0.15,-0.6375 z"
         style="stroke-width:0.03543307;stroke-miterlimit:4;stroke-dasharray:none"
         id="path16797" />
      <path
         d="m 510.33783,784.44293 0,3.39966 3.39966,0 0,1.0376 -3.39966,0 0,3.39966 -1.02539,0 0,-3.39966 -3.39966,0 0,-1.0376 3.39966,0 0,-3.39966 1.02539,0 z"
         style="stroke-width:0.03543307;stroke-miterlimit:4;stroke-dasharray:none"
         id="path16799" />
      <path
         d="m 515.96195,784.00485 q 0.6875,0 1.45,0 0.775,-0.0125 1.525,0.05 0.7625,0.05 1.4625,0.1875 0.7125,0.1375 1.275,0.4375 -0.1125,0.325 -0.2875,0.5875 -0.175,0.2625 -0.3875,0.5125 -0.2125,0.2375 -0.45,0.475 -0.2375,0.225 -0.475,0.4625 0.1,0.2375 0.3,0.4 0.2125,0.1625 0.4375,0.2875 0.225,0.125 0.425,0.2375 0.2125,0.1125 0.325,0.25 0.125,0.1375 0.1125,0.325 0,0.175 -0.2125,0.4375 l 0.5375,0.975 0.1125,-0.1125 q 0.2375,0.075 0.225,0.2375 0,0.15 -0.0875,0.3125 -0.0875,0.1625 -0.1875,0.3125 -0.1,0.1375 -0.0625,0.2125 -0.0375,-0.0375 -0.05,-0.1625 -0.0125,-0.1375 -0.0375,-0.2875 -0.0125,-0.15 -0.0625,-0.2875 -0.05,-0.15 -0.175,-0.225 l -0.1,0 q -0.0875,0.1625 -0.075,0.3625 0.025,0.2 0.075,0.4125 0.05,0.2125 0.0875,0.425 0.05,0.2125 0.025,0.4 -0.0125,0.1875 -0.1375,0.3375 -0.125,0.1375 -0.425,0.225 -0.1875,-0.1375 -0.2875,-0.125 -0.0875,0 -0.15,0.0875 -0.05,0.0875 -0.0875,0.2125 -0.0375,0.125 -0.1,0.2375 -0.05,0.1 -0.15,0.15 -0.0875,0.05 -0.275,-0.025 -0.525,0.2375 -1.0375,0.2875 -0.5125,0.0625 -1,0 -0.4875,-0.0625 -0.95,-0.2125 -0.4625,-0.1375 -0.9,-0.3 -0.3375,-0.2875 -0.5375,-0.625 -0.1875,-0.3375 -0.2375,-0.675 -0.0375,-0.3375 0.0875,-0.6625 0.1375,-0.3375 0.4625,-0.625 0.2,-0.2 0.3125,-0.175 0.125,0.025 0.225,0.125 0.1,0.1 0.2125,0.2 0.125,0.1 0.325,0.0625 -0.0375,0.4 0.0625,0.7875 0.1,0.3875 0.3125,0.6875 0.225,0.2875 0.5625,0.4625 0.3375,0.1625 0.7875,0.125 0.325,-0.125 0.65,-0.275 0.3375,-0.15 0.625,-0.3625 0.2875,-0.2125 0.5125,-0.5 0.2375,-0.3 0.35,-0.7 -0.1125,-0.2 -0.1875,-0.5625 -0.0625,-0.375 -0.2125,-0.7125 -0.15,-0.35 -0.45,-0.5875 -0.2875,-0.2375 -0.8625,-0.2 -0.2375,0.0875 -0.45,0.1375 -0.2,0.05 -0.4,0.1 -0.1875,0.05 -0.375,0.125 -0.1875,0.0625 -0.3875,0.175 -0.1375,-0.2875 -0.05,-0.5625 0.0875,-0.2875 0.2875,-0.55 0.2125,-0.275 0.4625,-0.5375 0.25,-0.2625 0.45,-0.525 0.2125,-0.2625 0.3,-0.525 0.0875,-0.2625 -0.05,-0.5375 -0.625,-0.2125 -0.975,-0.1875 -0.3375,0.025 -0.5375,0.2 -0.1875,0.1625 -0.3,0.4375 -0.1125,0.2625 -0.2625,0.5375 -0.15,0.275 -0.4125,0.5125 -0.25,0.2375 -0.7375,0.3375 -0.125,-0.3625 -0.2375,-0.7625 -0.1,-0.4125 -0.1125,-0.8125 0,-0.4125 0.1125,-0.7875 0.125,-0.375 0.45,-0.6625 z"
         style="stroke-width:0.03543307;stroke-miterlimit:4;stroke-dasharray:none"
         id="path16801" />
    </g>
    <g
       style="font-style:normal;font-variant:normal;font-weight:normal;font-stretch:normal;font-size:12.5px;line-height:125%;font-family:'My Underwood';-inkscape-font-specification:'My Underwood';letter-spacing:0px;word-spacing:0px;display:inline;fill:#000000;fill-opacity:1;stroke:none;stroke-width:0.03543307;stroke-linecap:butt;stroke-linejoin:miter;stroke-opacity:1;stroke-miterlimit:4;stroke-dasharray:none"
       id="text16734">
      <path
         d="m 452.37128,804.52394 q 0.1625,-0.025 0.2625,0.05 0.1,0.075 0.175,0.2 0.0875,0.1125 0.1375,0.225 0.0625,0.1125 0.125,0.15 0.075,0.025 0.1625,-0.05 0.1,-0.075 0.2375,-0.35 -0.05,-0.0875 -0.1125,-0.2125 -0.05,-0.1375 -0.0875,-0.275 -0.025,-0.1375 -0.0125,-0.2625 0.0125,-0.1375 0.0875,-0.225 0.3625,-0.3 0.7375,-0.325 0.375,-0.025 0.7625,0.05 0.3875,0.075 0.8,0.15 0.4125,0.075 0.8625,-0.0125 0.075,0.325 -0.0875,0.4875 -0.15,0.15 -0.4375,0.225 -0.275,0.075 -0.6125,0.1375 -0.325,0.05 -0.6,0.175 -0.275,0.1125 -0.425,0.3625 -0.1375,0.25 -0.025,0.7125 -0.1625,-0.125 -0.2875,-0.05 -0.125,0.0625 -0.225,0.225 -0.0875,0.1625 -0.15,0.3625 -0.05,0.1875 -0.0875,0.3125 0.2,0.2125 0.3625,0.4625 0.175,0.25 0.3375,0.4875 0.1625,0.2375 0.3375,0.4375 0.175,0.1875 0.3875,0.275 0.0375,0.0375 -0.0125,0.075 -0.0375,0.0375 -0.075,0.0875 -0.0375,0.0375 -0.0375,0.075 0,0.0375 0.125,0.075 0.075,0.1875 0.175,0.2375 0.1125,0.05 0.2125,0.05 0.1125,-0.0125 0.2125,-0.0375 0.1,-0.0375 0.175,-0.025 0.0875,0.0125 0.1375,0.1125 0.05,0.0875 0.05,0.325 -0.2375,0.2 -0.525,0.275 -0.275,0.075 -0.5875,0.0875 -0.3125,0 -0.6375,-0.025 -0.325,-0.0375 -0.6375,-0.0375 0.0625,-0.175 -0.0375,-0.25 -0.0875,-0.075 -0.1875,-0.175 0.0875,0 0.2375,-0.075 0.1625,-0.075 0.275,-0.1875 0.125,-0.1125 0.1625,-0.2375 0.0375,-0.1375 -0.125,-0.25 -0.1875,0.025 -0.2875,-0.0375 -0.1,-0.075 -0.1625,-0.1875 -0.05,-0.1125 -0.0875,-0.2375 -0.025,-0.1375 -0.075,-0.2375 -0.0375,-0.1 -0.125,-0.125 -0.0875,-0.0375 -0.25,0.05 -0.1625,0.0375 -0.4,0.2375 -0.225,0.2 -0.3625,0.45 -0.1375,0.2375 -0.125,0.475 0.025,0.2375 0.35,0.3625 0.075,0.1625 -0.025,0.2875 -0.0875,0.1125 -0.25,0.1875 -0.1625,0.075 -0.35,0.1 -0.175,0.025 -0.25,-0.0125 l -1.8625,-0.1375 q 0.5375,-0.1125 0.8875,-0.4375 0.35,-0.3375 0.6375,-0.7625 0.2875,-0.4375 0.5625,-0.9 0.275,-0.4625 0.65,-0.8375 -0.1,-0.6375 -0.5375,-1.15 -0.425,-0.5125 -0.9875,-0.9125 -0.25,0.0875 -0.4125,0.0375 -0.1625,-0.0625 -0.3,-0.1625 -0.125,-0.1 -0.2625,-0.2 -0.1375,-0.1 -0.3375,-0.1 0,-0.2125 0.1375,-0.275 0.1375,-0.0625 0.325,-0.0625 0.1875,0 0.3625,0.025 0.1875,0.025 0.2625,-0.0125 l 0,-0.35 q 0.325,0.175 0.6125,0.1375 0.3,-0.0375 0.5625,-0.075 0.275,-0.0375 0.55,0.0125 0.275,0.0375 0.5625,0.375 l -0.5375,0.65 z"
         style="stroke-width:0.03543307;stroke-miterlimit:4;stroke-dasharray:none"
         id="path16760" />
      <path
         d="m 457.54199,801.58644 q 0.575,0.0375 1.2,0.0125 0.6375,-0.0375 1.275,-0.0375 0.6375,0 1.25,0.0625 0.6125,0.0625 1.1375,0.275 -0.2375,0.375 -0.65,0.4875 -0.4125,0.1125 -0.8875,0.125 -0.475,0 -0.9625,-0.0375 -0.4875,-0.0375 -0.875,0.05 -0.3875,0.075 -0.625,0.3375 -0.225,0.2625 -0.2,0.8625 0.525,0.125 1.075,0.1125 0.5625,-0.025 1.0875,0 0.5375,0.0125 1.025,0.1625 0.5,0.1375 0.9,0.5875 0.325,0.3625 0.5,0.9 0.175,0.5375 0.2125,1.1375 0.0375,0.6 -0.0375,1.2 -0.075,0.5875 -0.2375,1.075 -0.3625,0.325 -0.7625,0.625 -0.4,0.2875 -0.8375,0.475 -0.4375,0.1875 -0.9125,0.25 -0.4625,0.0625 -0.95,-0.075 -0.3625,0.05 -0.675,-0.075 -0.3,-0.1125 -0.5625,-0.3125 -0.2625,-0.2 -0.4875,-0.4375 -0.2125,-0.25 -0.4125,-0.45 -0.0875,-0.5625 0.025,-0.975 0.125,-0.425 0.6,-0.75 0.325,0.0875 0.5125,0.275 0.1875,0.1875 0.3125,0.4375 0.1375,0.2375 0.25,0.5125 0.125,0.2625 0.325,0.5 l 0,-0.5375 q 0.2125,-0.0375 0.2375,0.05 0.0375,0.075 0,0.2 -0.025,0.1125 -0.0625,0.2375 -0.025,0.125 0.0625,0.1625 0.275,-0.0375 0.6375,-0.1125 0.3625,-0.075 0.7125,-0.2 0.3625,-0.1375 0.6625,-0.3375 0.3125,-0.2 0.475,-0.5125 0.1125,-0.45 0.1,-0.9375 0,-0.4875 -0.15,-0.9125 -0.15,-0.4375 -0.4625,-0.75 -0.3125,-0.325 -0.8,-0.45 -0.325,-0.1625 -0.6375,-0.0875 -0.3,0.0625 -0.5875,0.225 -0.2875,0.1625 -0.5625,0.3625 -0.275,0.2 -0.5375,0.3 -0.2625,0.1 -0.525,0.0375 -0.25,-0.0625 -0.4875,-0.4125 0.0375,-0.4375 0,-0.9 -0.025,-0.4625 -0.0375,-0.925 -0.0125,-0.4625 0.05,-0.9125 0.0625,-0.4625 0.3,-0.9 z"
         style="stroke-width:0.03543307;stroke-miterlimit:4;stroke-dasharray:none"
         id="path16762" />
      <path
         d="m 464.67075,804.04767 7.8247,0 0,1.02539 -7.8247,0 0,-1.02539 z m 0,2.49023 7.8247,0 0,1.0376 -7.8247,0 0,-1.0376 z"
         style="stroke-width:0.03543307;stroke-miterlimit:4;stroke-dasharray:none"
         id="path16764" />
      <path
         d="m 475.75742,799.21144 q 0.1125,-0.05 0.175,0.0125 0.075,0.0625 0.1375,0.1625 0.0625,0.1 0.125,0.2125 0.075,0.1 0.1875,0.1375 -0.075,0.575 -0.375,1.1125 -0.2875,0.525 -0.6875,0.925 0.075,0.3625 0.0125,0.7875 -0.0625,0.4125 -0.1625,0.8375 -0.1,0.425 -0.2,0.85 -0.1,0.4125 -0.1,0.775 0.2125,0.575 0.4125,1.2375 0.2125,0.6625 0.45,1.3375 0.2375,0.675 0.5,1.3125 0.275,0.6375 0.6,1.1625 -0.2125,0.0875 -0.3,0.275 -0.0875,0.1875 -0.175,0.3375 -0.075,0.1625 -0.2,0.2 -0.125,0.05 -0.4,-0.15 -0.65,-1.0875 -1.1125,-2.4 -0.45,-1.325 -0.5875,-2.6875 -0.125,-1.3625 0.125,-2.6875 0.2625,-1.3375 1.0375,-2.4625 l 0.5375,-1.2875 0,0 z"
         style="stroke-width:0.03543307;stroke-miterlimit:4;stroke-dasharray:none"
         id="path16766" />
      <path
         d="m 480.008,804.52394 q 0.1625,-0.025 0.2625,0.05 0.1,0.075 0.175,0.2 0.0875,0.1125 0.1375,0.225 0.0625,0.1125 0.125,0.15 0.075,0.025 0.1625,-0.05 0.1,-0.075 0.2375,-0.35 -0.05,-0.0875 -0.1125,-0.2125 -0.05,-0.1375 -0.0875,-0.275 -0.025,-0.1375 -0.0125,-0.2625 0.0125,-0.1375 0.0875,-0.225 0.3625,-0.3 0.7375,-0.325 0.375,-0.025 0.7625,0.05 0.3875,0.075 0.8,0.15 0.4125,0.075 0.8625,-0.0125 0.075,0.325 -0.0875,0.4875 -0.15,0.15 -0.4375,0.225 -0.275,0.075 -0.6125,0.1375 -0.325,0.05 -0.6,0.175 -0.275,0.1125 -0.425,0.3625 -0.1375,0.25 -0.025,0.7125 -0.1625,-0.125 -0.2875,-0.05 -0.125,0.0625 -0.225,0.225 -0.0875,0.1625 -0.15,0.3625 -0.05,0.1875 -0.0875,0.3125 0.2,0.2125 0.3625,0.4625 0.175,0.25 0.3375,0.4875 0.1625,0.2375 0.3375,0.4375 0.175,0.1875 0.3875,0.275 0.0375,0.0375 -0.0125,0.075 -0.0375,0.0375 -0.075,0.0875 -0.0375,0.0375 -0.0375,0.075 0,0.0375 0.125,0.075 0.075,0.1875 0.175,0.2375 0.1125,0.05 0.2125,0.05 0.1125,-0.0125 0.2125,-0.0375 0.1,-0.0375 0.175,-0.025 0.0875,0.0125 0.1375,0.1125 0.05,0.0875 0.05,0.325 -0.2375,0.2 -0.525,0.275 -0.275,0.075 -0.5875,0.0875 -0.3125,0 -0.6375,-0.025 -0.325,-0.0375 -0.6375,-0.0375 0.0625,-0.175 -0.0375,-0.25 -0.0875,-0.075 -0.1875,-0.175 0.0875,0 0.2375,-0.075 0.1625,-0.075 0.275,-0.1875 0.125,-0.1125 0.1625,-0.2375 0.0375,-0.1375 -0.125,-0.25 -0.1875,0.025 -0.2875,-0.0375 -0.1,-0.075 -0.1625,-0.1875 -0.05,-0.1125 -0.0875,-0.2375 -0.025,-0.1375 -0.075,-0.2375 -0.0375,-0.1 -0.125,-0.125 -0.0875,-0.0375 -0.25,0.05 -0.1625,0.0375 -0.4,0.2375 -0.225,0.2 -0.3625,0.45 -0.1375,0.2375 -0.125,0.475 0.025,0.2375 0.35,0.3625 0.075,0.1625 -0.025,0.2875 -0.0875,0.1125 -0.25,0.1875 -0.1625,0.075 -0.35,0.1 -0.175,0.025 -0.25,-0.0125 l -1.8625,-0.1375 q 0.5375,-0.1125 0.8875,-0.4375 0.35,-0.3375 0.6375,-0.7625 0.2875,-0.4375 0.5625,-0.9 0.275,-0.4625 0.65,-0.8375 -0.1,-0.6375 -0.5375,-1.15 -0.425,-0.5125 -0.9875,-0.9125 -0.25,0.0875 -0.4125,0.0375 -0.1625,-0.0625 -0.3,-0.1625 -0.125,-0.1 -0.2625,-0.2 -0.1375,-0.1 -0.3375,-0.1 0,-0.2125 0.1375,-0.275 0.1375,-0.0625 0.325,-0.0625 0.1875,0 0.3625,0.025 0.1875,0.025 0.2625,-0.0125 l 0,-0.35 q 0.325,0.175 0.6125,0.1375 0.3,-0.0375 0.5625,-0.075 0.275,-0.0375 0.55,0.0125 0.275,0.0375 0.5625,0.375 l -0.5375,0.65 z"
         style="stroke-width:0.03543307;stroke-miterlimit:4;stroke-dasharray:none"
         id="path16768" />
      <path
         d="m 485.2912,801.44894 q 0.6875,0 1.45,0 0.775,-0.0125 1.525,0.05 0.7625,0.05 1.4625,0.1875 0.7125,0.1375 1.275,0.4375 -0.1125,0.325 -0.2875,0.5875 -0.175,0.2625 -0.3875,0.5125 -0.2125,0.2375 -0.45,0.475 -0.2375,0.225 -0.475,0.4625 0.1,0.2375 0.3,0.4 0.2125,0.1625 0.4375,0.2875 0.225,0.125 0.425,0.2375 0.2125,0.1125 0.325,0.25 0.125,0.1375 0.1125,0.325 0,0.175 -0.2125,0.4375 l 0.5375,0.975 0.1125,-0.1125 q 0.2375,0.075 0.225,0.2375 0,0.15 -0.0875,0.3125 -0.0875,0.1625 -0.1875,0.3125 -0.1,0.1375 -0.0625,0.2125 -0.0375,-0.0375 -0.05,-0.1625 -0.0125,-0.1375 -0.0375,-0.2875 -0.0125,-0.15 -0.0625,-0.2875 -0.05,-0.15 -0.175,-0.225 l -0.1,0 q -0.0875,0.1625 -0.075,0.3625 0.025,0.2 0.075,0.4125 0.05,0.2125 0.0875,0.425 0.05,0.2125 0.025,0.4 -0.0125,0.1875 -0.1375,0.3375 -0.125,0.1375 -0.425,0.225 -0.1875,-0.1375 -0.2875,-0.125 -0.0875,0 -0.15,0.0875 -0.05,0.0875 -0.0875,0.2125 -0.0375,0.125 -0.1,0.2375 -0.05,0.1 -0.15,0.15 -0.0875,0.05 -0.275,-0.025 -0.525,0.2375 -1.0375,0.2875 -0.5125,0.0625 -1,0 -0.4875,-0.0625 -0.95,-0.2125 -0.4625,-0.1375 -0.9,-0.3 -0.3375,-0.2875 -0.5375,-0.625 -0.1875,-0.3375 -0.2375,-0.675 -0.0375,-0.3375 0.0875,-0.6625 0.1375,-0.3375 0.4625,-0.625 0.2,-0.2 0.3125,-0.175 0.125,0.025 0.225,0.125 0.1,0.1 0.2125,0.2 0.125,0.1 0.325,0.0625 -0.0375,0.4 0.0625,0.7875 0.1,0.3875 0.3125,0.6875 0.225,0.2875 0.5625,0.4625 0.3375,0.1625 0.7875,0.125 0.325,-0.125 0.65,-0.275 0.3375,-0.15 0.625,-0.3625 0.2875,-0.2125 0.5125,-0.5 0.2375,-0.3 0.35,-0.7 -0.1125,-0.2 -0.1875,-0.5625 -0.0625,-0.375 -0.2125,-0.7125 -0.15,-0.35 -0.45,-0.5875 -0.2875,-0.2375 -0.8625,-0.2 -0.2375,0.0875 -0.45,0.1375 -0.2,0.05 -0.4,0.1 -0.1875,0.05 -0.375,0.125 -0.1875,0.0625 -0.3875,0.175 -0.1375,-0.2875 -0.05,-0.5625 0.0875,-0.2875 0.2875,-0.55 0.2125,-0.275 0.4625,-0.5375 0.25,-0.2625 0.45,-0.525 0.2125,-0.2625 0.3,-0.525 0.0875,-0.2625 -0.05,-0.5375 -0.625,-0.2125 -0.975,-0.1875 -0.3375,0.025 -0.5375,0.2 -0.1875,0.1625 -0.3,0.4375 -0.1125,0.2625 -0.2625,0.5375 -0.15,0.275 -0.4125,0.5125 -0.25,0.2375 -0.7375,0.3375 -0.125,-0.3625 -0.2375,-0.7625 -0.1,-0.4125 -0.1125,-0.8125 0,-0.4125 0.1125,-0.7875 0.125,-0.375 0.45,-0.6625 z"
         style="stroke-width:0.03543307;stroke-miterlimit:4;stroke-dasharray:none"
         id="path16770" />
      <path
         d="m 497.56259,801.88702 0,3.39966 3.39966,0 0,1.0376 -3.39966,0 0,3.39966 -1.02539,0 0,-3.39966 -3.39966,0 0,-1.0376 3.39966,0 0,-3.39966 1.02539,0 z"
         style="stroke-width:0.03543307;stroke-miterlimit:4;stroke-dasharray:none"
         id="path16772" />
      <path
         d="m 507.09921,801.99894 q 0,1.05 0.0625,2.175 0.075,1.1125 0.475,2.2625 0.1625,-0.1625 0.3125,-0.0875 0.15,0.075 0.2875,0.225 0.1375,0.15 0.275,0.2875 0.15,0.1375 0.3125,0.1 0.0375,0.1625 -0.0125,0.2625 -0.0375,0.0875 -0.1375,0.15 -0.0875,0.0625 -0.2,0.1125 -0.1,0.05 -0.175,0.125 l -0.7625,0.1125 q -0.1625,0.4 -0.1125,0.625 0.05,0.2125 0.2125,0.3375 0.1625,0.1125 0.3875,0.175 0.2375,0.05 0.45,0.1375 0.2125,0.075 0.35,0.225 0.1375,0.1375 0.1125,0.4375 -0.4875,0 -0.9625,0.0625 -0.475,0.0625 -0.9625,0.1125 -0.475,0.05 -0.9875,0.05 -0.5125,0 -1.075,-0.1125 -0.1375,-0.35 -0.0375,-0.5125 0.1125,-0.175 0.325,-0.2625 0.225,-0.0875 0.5,-0.1375 0.2875,-0.05 0.4875,-0.1625 0.2125,-0.1125 0.3,-0.325 0.0875,-0.225 -0.075,-0.65 -0.35,-0.1125 -0.7,-0.1375 -0.35,-0.025 -0.7,-0.0125 -0.3375,0 -0.6625,0.0125 -0.325,0.0125 -0.65,-0.0125 -0.3125,-0.0375 -0.6125,-0.15 -0.2875,-0.1125 -0.55,-0.35 0.4875,-0.6875 0.9375,-1.4125 0.4625,-0.725 0.9125,-1.4375 0.45,-0.725 0.925,-1.425 0.475,-0.7 1,-1.35 0.1625,-0.0375 0.2875,0.0125 0.125,0.05 0.2125,0.15 0.0875,0.0875 0.15,0.2 0.0625,0.1125 0.1,0.1875 z m -0.8625,1.5125 q -0.2875,0.2 -0.5375,0.5 -0.25,0.2875 -0.4625,0.625 -0.2,0.325 -0.3375,0.675 -0.125,0.35 -0.1625,0.675 0.225,0.25 0.4875,0.35 0.2625,0.1 0.5875,0.1 0.35,-0.1375 0.4875,-0.35 0.15,-0.2125 0.1625,-0.4625 0.025,-0.2625 -0.0375,-0.5375 -0.0625,-0.275 -0.1375,-0.55 -0.0625,-0.2875 -0.1,-0.55 -0.025,-0.2625 0.05,-0.475 z"
         style="stroke-width:0.03543307;stroke-miterlimit:4;stroke-dasharray:none"
         id="path16774" />
      <path
         d="m 509.75605,799.34894 q 0.375,-0.075 0.5375,0.075 0.175,0.1375 0.2625,0.3875 0.1,0.25 0.1625,0.55 0.075,0.2875 0.25,0.5 l 0.1875,-0.325 q 0,0.3625 0.075,0.7625 0.0875,0.4 0.225,0.75 0.15,0.35 0.35,0.6125 0.2,0.2625 0.4375,0.3375 -0.275,0.275 -0.3625,0.6 -0.075,0.3125 -0.0625,0.675 0.0125,0.35 0.075,0.725 0.0625,0.375 0.0875,0.75 0.0375,0.3625 -0.0125,0.7125 -0.0375,0.3375 -0.25,0.6375 -0.25,0.4125 -0.35,0.9 -0.1,0.475 -0.2125,0.975 -0.1,0.5 -0.275,0.9625 -0.175,0.4625 -0.575,0.8375 l -0.55,-0.125 q 0.3375,-1 0.625,-2.05 0.3,-1.05 0.4375,-2.15 0.15,-1.1 0.075,-2.25 -0.075,-1.1625 -0.475,-2.375 -0.0875,-0.2875 -0.275,-0.5875 -0.1875,-0.3125 -0.3375,-0.625 -0.15,-0.3125 -0.2,-0.625 -0.0375,-0.325 0.15,-0.6375 z"
         style="stroke-width:0.03543307;stroke-miterlimit:4;stroke-dasharray:none"
         id="path16776" />
      <path
         d="m 518.2413,801.88702 0,3.39966 3.39966,0 0,1.0376 -3.39966,0 0,3.39966 -1.02539,0 0,-3.39966 -3.39966,0 0,-1.0376 3.39966,0 0,-3.39966 1.02539,0 z"
         style="stroke-width:0.03543307;stroke-miterlimit:4;stroke-dasharray:none"
         id="path16778" />
      <path
         d="m 523.75292,801.58644 q 0.575,0.0375 1.2,0.0125 0.6375,-0.0375 1.275,-0.0375 0.6375,0 1.25,0.0625 0.6125,0.0625 1.1375,0.275 -0.2375,0.375 -0.65,0.4875 -0.4125,0.1125 -0.8875,0.125 -0.475,0 -0.9625,-0.0375 -0.4875,-0.0375 -0.875,0.05 -0.3875,0.075 -0.625,0.3375 -0.225,0.2625 -0.2,0.8625 0.525,0.125 1.075,0.1125 0.5625,-0.025 1.0875,0 0.5375,0.0125 1.025,0.1625 0.5,0.1375 0.9,0.5875 0.325,0.3625 0.5,0.9 0.175,0.5375 0.2125,1.1375 0.0375,0.6 -0.0375,1.2 -0.075,0.5875 -0.2375,1.075 -0.3625,0.325 -0.7625,0.625 -0.4,0.2875 -0.8375,0.475 -0.4375,0.1875 -0.9125,0.25 -0.4625,0.0625 -0.95,-0.075 -0.3625,0.05 -0.675,-0.075 -0.3,-0.1125 -0.5625,-0.3125 -0.2625,-0.2 -0.4875,-0.4375 -0.2125,-0.25 -0.4125,-0.45 -0.0875,-0.5625 0.025,-0.975 0.125,-0.425 0.6,-0.75 0.325,0.0875 0.5125,0.275 0.1875,0.1875 0.3125,0.4375 0.1375,0.2375 0.25,0.5125 0.125,0.2625 0.325,0.5 l 0,-0.5375 q 0.2125,-0.0375 0.2375,0.05 0.0375,0.075 0,0.2 -0.025,0.1125 -0.0625,0.2375 -0.025,0.125 0.0625,0.1625 0.275,-0.0375 0.6375,-0.1125 0.3625,-0.075 0.7125,-0.2 0.3625,-0.1375 0.6625,-0.3375 0.3125,-0.2 0.475,-0.5125 0.1125,-0.45 0.1,-0.9375 0,-0.4875 -0.15,-0.9125 -0.15,-0.4375 -0.4625,-0.75 -0.3125,-0.325 -0.8,-0.45 -0.325,-0.1625 -0.6375,-0.0875 -0.3,0.0625 -0.5875,0.225 -0.2875,0.1625 -0.5625,0.3625 -0.275,0.2 -0.5375,0.3 -0.2625,0.1 -0.525,0.0375 -0.25,-0.0625 -0.4875,-0.4125 0.0375,-0.4375 0,-0.9 -0.025,-0.4625 -0.0375,-0.925 -0.0125,-0.4625 0.05,-0.9125 0.0625,-0.4625 0.3,-0.9 z"
         style="stroke-width:0.03543307;stroke-miterlimit:4;stroke-dasharray:none"
         id="path16780" />
    </g>
  </g>
  <g
     inkscape:groupmode="layer"
     id="layer5"
     inkscape:label="Knobs outlines"
     style="display:none"
     sodipodi:insensitive="true">
    <circle
       id="path3884"
       style="display:inline;fill:none;stroke:#000000;stroke-width:0.35433072;stroke-miterlimit:4;stroke-dasharray:none;stroke-opacity:1"
       cx="504"
       cy="584.36218"
       r="26.427053" />
    <circle
       id="path3888"
       style="display:inline;fill:none;stroke:#000000;stroke-width:0.35433072;stroke-miterlimit:4;stroke-dasharray:none;stroke-opacity:1"
       cx="504"
       cy="674.36218"
       r="26.427053" />
    <circle
       r="26.427053"
       cy="584.36218"
       cx="432"
       style="display:inline;fill:none;stroke:#000000;stroke-width:0.35433072;stroke-miterlimit:4;stroke-dasharray:none;stroke-opacity:1"
       id="circle6472" />
    <circle
       id="circle6474"
       style="display:inline;fill:none;stroke:#000000;stroke-width:0.35433072;stroke-miterlimit:4;stroke-dasharray:none;stroke-opacity:1"
       cx="432"
       cy="710.36218"
       r="26.427053" />
    <circle
       r="26.427053"
       cy="836.36218"
       cx="432"
       style="display:inline;fill:none;stroke:#000000;stroke-width:0.35433072;stroke-miterlimit:4;stroke-dasharray:none;stroke-opacity:1"
       id="circle6476" />
  </g>
</svg>
